<svg width="227" height="205" viewBox="0 0 227 205" fill="none" xmlns="http://www.w3.org/2000/svg">
<path d="M227 64.4434L-20.085 0L-47 205L187.234 149.114L227 64.4434Z" fill="#65BEC8"/>
<circle cx="60" cy="19" r="10" fill="#FFD400"/>
<circle cx="124" cy="162" r="10" fill="#FFD400"/>
<ellipse cx="45" cy="120.5" rx="10" ry="9.5" fill="#FFD400"/>
<g clip-path="url(#clip0_380_4)">
<path d="M182.698 112.473H161.802V83.2433C161.67 77.1867 159.962 72.1833 156.808 68.8917C153.917 65.8633 149.843 64.2833 145.243 64.2833C140.512 64.2833 136.569 65.8633 133.547 68.8917C130.392 72.1833 128.553 77.1867 128.421 83.2433V112.473H107.525V40.8467H182.698V112.473ZM161.802 112.473H182.566V40.9783H107.525V112.473H128.29V83.2433C128.421 77.1867 130.13 72.1833 133.415 68.8917C136.306 65.8633 140.38 64.1517 145.111 64.1517C149.843 64.1517 153.785 65.7317 156.676 68.8917C159.831 72.1833 161.539 77.1867 161.67 83.2433V112.473H161.802Z" stroke="#FF1111" stroke-width="0.6" stroke-miterlimit="10" stroke-linejoin="round"/>
<path d="M165.088 80.6102C165.088 81.2685 165.088 81.9269 165.088 82.5852C165.088 84.9552 165.088 87.4569 165.088 89.8269C165.088 95.8835 165.088 101.94 165.088 107.997C165.088 108.26 165.088 112.605 165.088 112.605H161.671V84.0335V83.2435C161.671 82.3219 161.539 81.4002 161.539 80.4785C160.356 69.4185 153.523 64.1519 145.112 64.1519C136.701 64.1519 129.736 69.4185 128.553 80.4785C128.421 81.4002 128.421 82.3219 128.421 83.2435V84.0335V112.605H124.873C124.873 111.289 124.873 109.84 124.873 108.524C124.873 105.364 124.873 102.204 124.873 99.0435C124.873 95.6202 124.873 92.0652 124.873 88.6419C124.873 87.3252 124.873 86.0085 124.873 84.8235C124.873 82.1902 124.873 79.5569 125.53 77.0552C126.056 75.0802 126.713 73.1052 127.633 71.2619C129.341 68.1019 131.838 65.3369 134.992 63.6252C138.015 61.9135 141.563 61.1235 145.112 61.1235C152.34 61.1235 158.911 64.5469 162.328 70.9985C164.036 73.8952 164.825 77.1869 165.088 80.6102Z" fill="#FF1111"/>
<path d="M182.566 112.605V40.9785L193.737 34.5269V106.154L182.566 112.605ZM182.566 40.9785V112.474L193.606 106.022V34.6585L182.566 40.9785Z" stroke="#FF1111" stroke-width="0.6" stroke-miterlimit="10" stroke-linejoin="round"/>
<path d="M182.566 40.9784L107.525 40.8467L118.17 34.395L193.605 34.5267L182.566 40.9784Z" fill="#FF1111" stroke="#FF1111" stroke-width="0.6" stroke-miterlimit="10" stroke-linejoin="round"/>
<path d="M177.073 41.0005L154.182 66.7695L154.28 66.8571L177.171 41.0881L177.073 41.0005Z" stroke="#FF1111" stroke-width="0.6" stroke-miterlimit="10"/>
<path d="M182.508 50.4919L157.877 70.2324L157.96 70.3352L182.59 50.5947L182.508 50.4919Z" stroke="#FF1111" stroke-width="0.6" stroke-miterlimit="10"/>
<path d="M182.539 61.536L160.202 74.3877L160.267 74.5019L182.605 61.6502L182.539 61.536Z" stroke="#FF1111" stroke-width="0.6" stroke-miterlimit="10"/>
<path d="M182.506 70.0838L161.426 79.2959L161.478 79.4166L182.559 70.2045L182.506 70.0838Z" stroke="#FF1111" stroke-width="0.6" stroke-miterlimit="10"/>
<path d="M182.449 78.2911L161.669 84.022L161.704 84.1489L182.483 78.418L182.449 78.2911Z" stroke="#FF1111" stroke-width="0.6" stroke-miterlimit="10"/>
<path d="M182.518 84.6422L161.833 88.4258L161.857 88.5553L182.542 84.7717L182.518 84.6422Z" stroke="#FF1111" stroke-width="0.6" stroke-miterlimit="10"/>
<path d="M182.528 91.755L161.699 93.4326L161.71 93.5639L182.539 91.8863L182.528 91.755Z" stroke="#FF1111" stroke-width="0.6" stroke-miterlimit="10"/>
<path d="M145.112 40.8467H144.98V64.2833H145.112V40.8467Z" stroke="#FF1111" stroke-width="0.6" stroke-miterlimit="10"/>
<path d="M159.288 40.8709L149.63 64.5112L149.752 64.5611L159.41 40.9208L159.288 40.8709Z" stroke="#FF1111" stroke-width="0.6" stroke-miterlimit="10"/>
<path d="M182.566 102.467H161.67V102.598H182.566V102.467Z" stroke="#FF1111" stroke-width="0.6" stroke-miterlimit="10"/>
<path d="M182.435 107.47H161.67V107.602H182.435V107.47Z" stroke="#FF1111" stroke-width="0.6" stroke-miterlimit="10"/>
<path d="M182.435 97.9902H161.67V98.1219H182.435V97.9902Z" stroke="#FF1111" stroke-width="0.6" stroke-miterlimit="10"/>
<path d="M113.143 40.9422L113.045 41.0298L135.956 66.7816L136.054 66.6939L113.143 40.9422Z" stroke="#FF1111" stroke-width="0.6" stroke-miterlimit="10"/>
<path d="M107.627 50.3919L107.545 50.4946L132.159 70.2509L132.242 70.1482L107.627 50.3919Z" stroke="#FF1111" stroke-width="0.6" stroke-miterlimit="10"/>
<path d="M107.606 61.5275L107.54 61.6416L129.87 74.5062L129.935 74.3921L107.606 61.5275Z" stroke="#FF1111" stroke-width="0.6" stroke-miterlimit="10"/>
<path d="M107.525 70.0767L128.684 79.2933" stroke="#FF1111" stroke-width="0.6" stroke-miterlimit="10"/>
<path d="M127.633 83.6386L107.657 78.2402L127.633 83.5069V83.6386Z" stroke="#FF1111" stroke-width="0.6" stroke-miterlimit="10"/>
<path d="M107.526 84.5325L107.502 84.6621L128.323 88.4418L128.346 88.3122L107.526 84.5325Z" stroke="#FF1111" stroke-width="0.6" stroke-miterlimit="10"/>
<path d="M107.532 91.7438L107.521 91.875L128.481 93.5546L128.492 93.4233L107.532 91.7438Z" stroke="#FF1111" stroke-width="0.6" stroke-miterlimit="10"/>
<path d="M130.958 40.9496L130.836 40.9995L140.499 64.6373L140.62 64.5874L130.958 40.9496Z" stroke="#FF1111" stroke-width="0.6" stroke-miterlimit="10"/>
<path d="M128.553 102.467H107.525V102.598H128.553V102.467Z" stroke="#FF1111" stroke-width="0.6" stroke-miterlimit="10"/>
<path d="M128.553 107.47H107.525V107.602H128.553V107.47Z" stroke="#FF1111" stroke-width="0.6" stroke-miterlimit="10"/>
<path d="M128.553 97.9902H107.525V98.1219H128.553V97.9902Z" stroke="#FF1111" stroke-width="0.6" stroke-miterlimit="10"/>
<path d="M128.553 112.473L139.592 106.022C139.592 106.022 139.592 79.6884 139.592 76.7917C139.592 73.895 140.644 67.97 143.272 64.415" stroke="#FF1111" stroke-width="0.6" stroke-miterlimit="10" stroke-linejoin="round"/>
</g>
<defs>
<clipPath id="clip0_380_4">
<rect width="87" height="79" fill="white" transform="translate(107 34)"/>
</clipPath>
</defs>
</svg>
