<svg width="1440" height="915" viewBox="0 0 1440 915" fill="none" xmlns="http://www.w3.org/2000/svg">
<path d="M1136 54L1543.5 0.5L1519.5 317.5L974.5 353.5L1136 54Z" fill="#65BEC8"/>
<path d="M154 8.5L-56 99.5V855L391.5 462L154 8.5Z" fill="#65BEC8"/>
<g clip-path="url(#clip0_376_3)">
<path d="M1193.87 135.849H1171.57V104.209C1171.57 94.4536 1173.15 77.7109 1175.77 61.3636C1177.74 48.3122 1180.62 34.3379 1182.59 34.3379C1184.3 34.3379 1187.31 48.9713 1189.41 61.3636C1192.69 81.534 1193.87 96.6948 1193.87 104.209V135.849Z" stroke="#FF1111" stroke-width="0.6" stroke-miterlimit="10" stroke-linejoin="round"/>
<path d="M1182.72 34.3376C1185.84 34.3376 1188.36 31.7996 1188.36 28.6688C1188.36 25.538 1185.84 23 1182.72 23C1179.61 23 1177.08 25.538 1177.08 28.6688C1177.08 31.7996 1179.61 34.3376 1182.72 34.3376Z" fill="#FF1111"/>
<path d="M1181.28 76.5242H1178.79V68.6143H1181.28V76.5242ZM1178.92 76.3924H1181.15V68.7461H1178.92V76.3924Z" fill="#FF1111" stroke="#FF1111" stroke-width="0.5" stroke-miterlimit="10" stroke-linejoin="round"/>
<path d="M1186.13 76.5242H1183.64V68.6143H1186.13V76.5242ZM1183.9 76.3924H1186.13V68.7461H1183.9V76.3924Z" fill="#FF1111" stroke="#FF1111" stroke-width="0.5" stroke-miterlimit="10" stroke-linejoin="round"/>
<path d="M1186 66.5052H1183.51V58.5952H1186V66.5052ZM1183.64 66.3733H1185.87V58.727H1183.64V66.3733Z" fill="#FF1111" stroke="#FF1111" stroke-width="0.5" stroke-miterlimit="10" stroke-linejoin="round"/>
<path d="M1183.9 56.6175H1181.41V48.7075H1183.9V56.6175ZM1181.54 56.4857H1183.77V48.8394H1181.54V56.4857Z" fill="#FF1111" stroke="#FF1111" stroke-width="0.5" stroke-miterlimit="10" stroke-linejoin="round"/>
<path d="M1181.28 66.5052H1178.79V58.5952H1181.28V66.5052ZM1178.92 66.3733H1181.15V58.727H1178.92V66.3733Z" fill="#FF1111" stroke="#FF1111" stroke-width="0.5" stroke-miterlimit="10" stroke-linejoin="round"/>
<path d="M1181.54 96.431H1179.05V88.521H1181.54V96.431ZM1179.18 96.2991H1181.41V88.6528H1179.18V96.2991Z" fill="#FF1111" stroke="#FF1111" stroke-width="0.5" stroke-miterlimit="10" stroke-linejoin="round"/>
<path d="M1186.39 96.431H1183.9V88.521H1186.39V96.431ZM1184.03 96.2991H1186.26V88.6528H1184.03V96.2991Z" fill="#FF1111" stroke="#FF1111" stroke-width="0.5" stroke-miterlimit="10" stroke-linejoin="round"/>
<path d="M1190.85 96.431H1188.36V88.521H1190.85V96.431ZM1188.49 96.2991H1190.72V88.6528H1188.49V96.2991Z" fill="#FF1111" stroke="#FF1111" stroke-width="0.5" stroke-miterlimit="10" stroke-linejoin="round"/>
<path d="M1176.95 96.431H1174.46V88.521H1176.95V96.431ZM1174.59 96.2991H1176.82V88.6528H1174.59V96.2991Z" fill="#FF1111" stroke="#FF1111" stroke-width="0.5" stroke-miterlimit="10" stroke-linejoin="round"/>
<path d="M1176.95 106.319H1174.46V98.4087H1176.95V106.319ZM1174.59 106.319H1176.82V98.6724H1174.59V106.319Z" fill="#FF1111" stroke="#FF1111" stroke-width="0.5" stroke-miterlimit="10" stroke-linejoin="round"/>
<path d="M1190.85 106.319H1188.36V98.4087H1190.85V106.319ZM1188.49 106.319H1190.72V98.6724H1188.49V106.319Z" fill="#FF1111" stroke="#FF1111" stroke-width="0.5" stroke-miterlimit="10" stroke-linejoin="round"/>
<path d="M1190.85 116.338H1188.36V108.428H1190.85V116.338ZM1188.49 116.206H1190.72V108.56H1188.49V116.206Z" fill="#FF1111" stroke="#FF1111" stroke-width="0.5" stroke-miterlimit="10" stroke-linejoin="round"/>
<path d="M1176.95 116.338H1174.46V108.428H1176.95V116.338ZM1174.59 116.206H1176.82V108.56H1174.59V116.206Z" fill="#FF1111" stroke="#FF1111" stroke-width="0.5" stroke-miterlimit="10" stroke-linejoin="round"/>
<path d="M1186.13 86.4119H1183.64V78.502H1186.13V86.4119ZM1183.9 86.4119H1186.13V78.7656H1183.9V86.4119Z" fill="#FF1111" stroke="#FF1111" stroke-width="0.5" stroke-miterlimit="10" stroke-linejoin="round"/>
<path d="M1181.54 86.4119H1179.05V78.502H1181.54V86.4119ZM1179.18 86.4119H1181.41V78.7656H1179.18V86.4119Z" fill="#FF1111" stroke="#FF1111" stroke-width="0.5" stroke-miterlimit="10" stroke-linejoin="round"/>
<path d="M1181.54 116.338H1179.05V108.428H1181.54V116.338ZM1179.18 116.206H1181.41V108.56H1179.18V116.206Z" fill="#FF1111" stroke="#FF1111" stroke-width="0.5" stroke-miterlimit="10" stroke-linejoin="round"/>
<path d="M1186.39 116.338H1183.9V108.428H1186.39V116.338ZM1184.03 116.206H1186.26V108.56H1184.03V116.206Z" fill="#FF1111" stroke="#FF1111" stroke-width="0.5" stroke-miterlimit="10" stroke-linejoin="round"/>
<path d="M1190.72 126.225H1188.23V118.315H1190.72V126.225ZM1188.36 126.225H1190.59V118.579H1188.36V126.225Z" fill="#FF1111" stroke="#FF1111" stroke-width="0.5" stroke-miterlimit="10" stroke-linejoin="round"/>
<path d="M1176.82 126.225H1174.33V118.315H1176.82V126.225ZM1174.46 126.225H1176.69V118.579H1174.46V126.225Z" fill="#FF1111" stroke="#FF1111" stroke-width="0.5" stroke-miterlimit="10" stroke-linejoin="round"/>
<path d="M1181.28 126.225H1178.79V118.315H1181.28V126.225ZM1178.92 126.225H1181.15V118.579H1178.92V126.225Z" fill="#FF1111" stroke="#FF1111" stroke-width="0.5" stroke-miterlimit="10" stroke-linejoin="round"/>
<path d="M1186.13 126.225H1183.64V118.315H1186.13V126.225ZM1183.9 126.225H1186.13V118.579H1183.9V126.225Z" fill="#FF1111" stroke="#FF1111" stroke-width="0.5" stroke-miterlimit="10" stroke-linejoin="round"/>
<path d="M1186.13 106.319H1183.64V98.4087H1186.13V106.319ZM1183.9 106.319H1186.13V98.6724H1183.9V106.319Z" fill="#FF1111" stroke="#FF1111" stroke-width="0.5" stroke-miterlimit="10" stroke-linejoin="round"/>
<path d="M1181.54 106.319H1179.05V98.4087H1181.54V106.319ZM1179.18 106.319H1181.41V98.6724H1179.18V106.319Z" fill="#FF1111" stroke="#FF1111" stroke-width="0.5" stroke-miterlimit="10" stroke-linejoin="round"/>
<path d="M1216.3 135.849H1194V104.209C1194 94.4536 1195.57 77.7109 1198.2 61.3636C1200.16 48.3122 1203.05 34.3379 1205.02 34.3379C1206.72 34.3379 1209.74 48.9713 1211.84 61.3636C1215.11 81.534 1216.3 96.6948 1216.3 104.209V135.849V135.849Z" stroke="#FF1111" stroke-width="0.6" stroke-miterlimit="10" stroke-linejoin="round"/>
<path d="M1205.15 34.3376C1208.26 34.3376 1210.79 31.7996 1210.79 28.6688C1210.79 25.538 1208.26 23 1205.15 23C1202.03 23 1199.51 25.538 1199.51 28.6688C1199.51 31.7996 1202.03 34.3376 1205.15 34.3376Z" fill="#FF1111"/>
<path d="M1203.97 76.5242H1201.48V68.6143H1203.97V76.5242ZM1201.61 76.3924H1203.84V68.7461H1201.61V76.3924Z" fill="#FF1111" stroke="#FF1111" stroke-width="0.5" stroke-miterlimit="10" stroke-linejoin="round"/>
<path d="M1208.95 76.5242H1206.46V68.6143H1208.95V76.5242ZM1206.59 76.3924H1208.82V68.7461H1206.59V76.3924Z" fill="#FF1111" stroke="#FF1111" stroke-width="0.5" stroke-miterlimit="10" stroke-linejoin="round"/>
<path d="M1208.69 66.5052H1206.2V58.5952H1208.69V66.5052ZM1206.33 66.3733H1208.56V58.727H1206.33V66.3733Z" fill="#FF1111" stroke="#FF1111" stroke-width="0.5" stroke-miterlimit="10" stroke-linejoin="round"/>
<path d="M1206.59 56.6175H1204.1V48.7075H1206.59V56.6175ZM1204.23 56.4857H1206.46V48.8394H1204.23V56.4857Z" fill="#FF1111" stroke="#FF1111" stroke-width="0.5" stroke-miterlimit="10" stroke-linejoin="round"/>
<path d="M1203.97 66.5052H1201.48V58.5952H1203.97V66.5052ZM1201.61 66.3733H1203.84V58.727H1201.61V66.3733Z" fill="#FF1111" stroke="#FF1111" stroke-width="0.5" stroke-miterlimit="10" stroke-linejoin="round"/>
<path d="M1204.23 96.431H1201.74V88.521H1204.23V96.431ZM1201.87 96.2991H1204.1V88.6528H1201.87V96.2991Z" fill="#FF1111" stroke="#FF1111" stroke-width="0.5" stroke-miterlimit="10" stroke-linejoin="round"/>
<path d="M1209.08 96.431H1206.59V88.521H1209.08V96.431ZM1206.72 96.2991H1208.95V88.6528H1206.72V96.2991Z" fill="#FF1111" stroke="#FF1111" stroke-width="0.5" stroke-miterlimit="10" stroke-linejoin="round"/>
<path d="M1213.54 96.431H1211.05V88.521H1213.54V96.431ZM1211.18 96.2991H1213.41V88.6528H1211.18V96.2991Z" fill="#FF1111" stroke="#FF1111" stroke-width="0.5" stroke-miterlimit="10" stroke-linejoin="round"/>
<path d="M1199.64 96.431H1197.15V88.521H1199.64V96.431ZM1197.28 96.2991H1199.51V88.6528H1197.28V96.2991Z" fill="#FF1111" stroke="#FF1111" stroke-width="0.5" stroke-miterlimit="10" stroke-linejoin="round"/>
<path d="M1199.64 106.319H1197.15V98.4087H1199.64V106.319ZM1197.28 106.319H1199.51V98.6724H1197.28V106.319Z" fill="#FF1111" stroke="#FF1111" stroke-width="0.5" stroke-miterlimit="10" stroke-linejoin="round"/>
<path d="M1213.54 106.319H1211.05V98.4087H1213.54V106.319ZM1211.18 106.319H1213.41V98.6724H1211.18V106.319Z" fill="#FF1111" stroke="#FF1111" stroke-width="0.5" stroke-miterlimit="10" stroke-linejoin="round"/>
<path d="M1213.54 116.338H1211.05V108.428H1213.54V116.338ZM1211.18 116.206H1213.41V108.56H1211.18V116.206Z" fill="#FF1111" stroke="#FF1111" stroke-width="0.5" stroke-miterlimit="10" stroke-linejoin="round"/>
<path d="M1199.64 116.338H1197.15V108.428H1199.64V116.338ZM1197.28 116.206H1199.51V108.56H1197.28V116.206Z" fill="#FF1111" stroke="#FF1111" stroke-width="0.5" stroke-miterlimit="10" stroke-linejoin="round"/>
<path d="M1208.95 86.4119H1206.46V78.502H1208.95V86.4119ZM1206.59 86.4119H1208.82V78.7656H1206.59V86.4119Z" fill="#FF1111" stroke="#FF1111" stroke-width="0.5" stroke-miterlimit="10" stroke-linejoin="round"/>
<path d="M1204.23 86.4119H1201.74V78.502H1204.23V86.4119ZM1201.87 86.4119H1204.1V78.7656H1201.87V86.4119Z" fill="#FF1111" stroke="#FF1111" stroke-width="0.5" stroke-miterlimit="10" stroke-linejoin="round"/>
<path d="M1204.23 116.338H1201.74V108.428H1204.23V116.338ZM1201.87 116.206H1204.1V108.56H1201.87V116.206Z" fill="#FF1111" stroke="#FF1111" stroke-width="0.5" stroke-miterlimit="10" stroke-linejoin="round"/>
<path d="M1209.08 116.338H1206.59V108.428H1209.08V116.338ZM1206.72 116.206H1208.95V108.56H1206.72V116.206Z" fill="#FF1111" stroke="#FF1111" stroke-width="0.5" stroke-miterlimit="10" stroke-linejoin="round"/>
<path d="M1213.41 126.225H1210.92V118.315H1213.41V126.225ZM1211.05 126.225H1213.28V118.579H1211.05V126.225Z" fill="#FF1111" stroke="#FF1111" stroke-width="0.5" stroke-miterlimit="10" stroke-linejoin="round"/>
<path d="M1199.51 126.225H1197.02V118.315H1199.51V126.225ZM1197.15 126.225H1199.38V118.579H1197.15V126.225Z" fill="#FF1111" stroke="#FF1111" stroke-width="0.5" stroke-miterlimit="10" stroke-linejoin="round"/>
<path d="M1203.97 126.225H1201.48V118.315H1203.97V126.225ZM1201.61 126.225H1203.84V118.579H1201.61V126.225Z" fill="#FF1111" stroke="#FF1111" stroke-width="0.5" stroke-miterlimit="10" stroke-linejoin="round"/>
<path d="M1208.95 126.225H1206.46V118.315H1208.95V126.225ZM1206.59 126.225H1208.82V118.579H1206.59V126.225Z" fill="#FF1111" stroke="#FF1111" stroke-width="0.5" stroke-miterlimit="10" stroke-linejoin="round"/>
<path d="M1208.95 106.319H1206.46V98.4087H1208.95V106.319ZM1206.59 106.319H1208.82V98.6724H1206.59V106.319Z" fill="#FF1111" stroke="#FF1111" stroke-width="0.5" stroke-miterlimit="10" stroke-linejoin="round"/>
<path d="M1204.23 106.319H1201.74V98.4087H1204.23V106.319ZM1201.87 106.319H1204.1V98.6724H1201.87V106.319Z" fill="#FF1111" stroke="#FF1111" stroke-width="0.5" stroke-miterlimit="10" stroke-linejoin="round"/>
<path d="M1216.69 135.849L1235.44 144.155M1235.44 144.155L1216.43 135.849V110.669C1216.43 102.891 1217.74 91.4217 1219.84 80.8751C1222.07 69.933 1224.3 63.4731 1226 63.4731C1227.71 63.4731 1230.2 74.5471 1231.9 84.9619C1234 97.8815 1235.44 111.197 1235.44 118.975V144.155Z" stroke="#FF1111" stroke-width="0.6" stroke-miterlimit="10" stroke-linejoin="round"/>
<path d="M1241.74 137.959L1235.44 144.287L1235.31 144.155L1241.74 137.959ZM1241.74 137.959L1241.61 112.779C1241.61 105.528 1239.11 94.0584 1234.92 81.9297C1231.38 71.6468 1227.44 63.605 1226 63.605V63.4731" stroke="#FF1111" stroke-width="0.6" stroke-miterlimit="10" stroke-linejoin="round"/>
<path d="M1226.66 63.4729C1229.77 63.4729 1232.3 60.9349 1232.3 57.8041C1232.3 54.6733 1229.77 52.1353 1226.66 52.1353C1223.54 52.1353 1221.02 54.6733 1221.02 57.8041C1221.02 60.9349 1223.54 63.4729 1226.66 63.4729Z" fill="#FF1111"/>
<path d="M1220.62 127.807L1218.39 126.753V118.843L1220.62 119.897V127.807ZM1218.52 126.621L1220.49 127.544V119.897L1218.52 118.975V126.621Z" fill="#FF1111" stroke="#FF1111" stroke-width="0.45" stroke-miterlimit="10" stroke-linejoin="round"/>
<path d="M1224.43 129.389L1222.2 128.466V120.556L1224.43 121.611V129.389ZM1222.33 128.334L1224.3 129.257V121.611L1222.33 120.688V128.334Z" fill="#FF1111" stroke="#FF1111" stroke-width="0.45" stroke-miterlimit="10" stroke-linejoin="round"/>
<path d="M1228.62 131.235L1226.39 130.18V122.27L1228.62 123.325V131.235ZM1226.52 130.18L1228.49 131.103V123.457L1226.52 122.534V130.18Z" fill="#FF1111" stroke="#FF1111" stroke-width="0.45" stroke-miterlimit="10" stroke-linejoin="round"/>
<path d="M1232.95 133.212L1230.72 132.158V124.248L1232.95 125.302V133.212ZM1230.72 132.158L1232.69 133.08V125.434L1230.72 124.511V132.158Z" fill="#FF1111" stroke="#FF1111" stroke-width="0.45" stroke-miterlimit="10" stroke-linejoin="round"/>
<path d="M1221.15 117.524L1218.92 116.601V108.691L1221.15 109.746V117.524ZM1219.05 116.47L1221.02 117.392V109.746L1219.05 108.823V116.47Z" fill="#FF1111" stroke="#FF1111" stroke-width="0.45" stroke-miterlimit="10" stroke-linejoin="round"/>
<path d="M1224.95 119.238L1222.72 118.183V110.273L1224.95 111.328V119.238ZM1222.72 118.183L1224.69 119.106V111.328L1222.72 110.405V118.183Z" fill="#FF1111" stroke="#FF1111" stroke-width="0.45" stroke-miterlimit="10" stroke-linejoin="round"/>
<path d="M1229.15 121.084L1226.92 120.029V112.119L1229.15 113.174V121.084ZM1227.05 120.029L1229.02 120.952V113.306L1227.05 112.383V120.029Z" fill="#FF1111" stroke="#FF1111" stroke-width="0.45" stroke-miterlimit="10" stroke-linejoin="round"/>
<path d="M1233.34 123.061L1231.12 122.007V114.097L1233.34 115.151V123.061ZM1231.25 121.875L1233.21 122.798V115.151L1231.25 114.229V121.875Z" fill="#FF1111" stroke="#FF1111" stroke-width="0.45" stroke-miterlimit="10" stroke-linejoin="round"/>
<path d="M1221.15 107.373L1218.92 106.319V98.4087L1221.15 99.4634V107.373ZM1219.05 106.319L1221.02 107.241V99.4634L1219.05 98.5405V106.319Z" fill="#FF1111" stroke="#FF1111" stroke-width="0.45" stroke-miterlimit="10" stroke-linejoin="round"/>
<path d="M1224.95 108.955L1222.72 107.901V99.9907L1224.95 101.045V108.955ZM1222.72 107.901L1224.69 108.824V101.177L1222.72 100.254V107.901Z" fill="#FF1111" stroke="#FF1111" stroke-width="0.45" stroke-miterlimit="10" stroke-linejoin="round"/>
<path d="M1229.15 110.932L1226.92 109.878V101.968L1229.15 103.022V110.932ZM1227.05 109.878L1229.02 110.801V103.154L1227.05 102.1V109.878Z" fill="#FF1111" stroke="#FF1111" stroke-width="0.45" stroke-miterlimit="10" stroke-linejoin="round"/>
<path d="M1233.34 112.778L1231.12 111.723V103.813L1233.34 104.868V112.778ZM1231.25 111.723L1233.21 112.646V105L1231.25 104.077V111.723Z" fill="#FF1111" stroke="#FF1111" stroke-width="0.45" stroke-miterlimit="10" stroke-linejoin="round"/>
<path d="M1225.61 97.3538L1223.38 96.431V88.521L1225.61 89.5757V97.3538ZM1223.51 96.2991L1225.48 97.222V89.5757L1223.51 88.6528V96.2991Z" fill="#FF1111" stroke="#FF1111" stroke-width="0.45" stroke-miterlimit="10" stroke-linejoin="round"/>
<path d="M1229.8 99.3313L1227.57 98.2767V90.3667L1229.8 91.4214V99.3313ZM1227.71 98.2767L1229.67 99.1995V91.5532L1227.71 90.6304V98.2767Z" fill="#FF1111" stroke="#FF1111" stroke-width="0.45" stroke-miterlimit="10" stroke-linejoin="round"/>
<path d="M1225.61 87.4666L1223.38 86.4119V78.502L1225.61 79.5566V87.4666ZM1223.51 86.4119L1225.48 87.3348V79.6885L1223.51 78.7656V86.4119Z" fill="#FF1111" stroke="#FF1111" stroke-width="0.45" stroke-miterlimit="10" stroke-linejoin="round"/>
<path d="M1227.71 78.2381L1225.48 77.1834V69.2734L1227.71 70.3281V78.2381ZM1225.61 77.1834L1227.57 78.1062V70.4599L1225.61 69.5371V77.1834Z" fill="#FF1111" stroke="#FF1111" stroke-width="0.45" stroke-miterlimit="10" stroke-linejoin="round"/>
<path d="M1229.8 89.3118L1227.57 88.2571V80.3472L1229.8 81.4018V89.3118ZM1227.71 88.2571L1229.67 89.18V81.5337L1227.71 80.6108V88.2571Z" fill="#FF1111" stroke="#FF1111" stroke-width="0.45" stroke-miterlimit="10" stroke-linejoin="round"/>
<path d="M1152.56 144.155V118.975C1152.56 111.197 1153.87 97.8815 1155.97 84.9619C1157.67 74.5471 1160.16 63.4731 1161.87 63.4731C1163.57 63.4731 1165.8 69.933 1168.03 80.8751C1170.13 91.5535 1171.44 102.891 1171.44 110.669V135.849L1152.56 144.155Z" stroke="#FF1111" stroke-width="0.6" stroke-miterlimit="10" stroke-linejoin="round"/>
<path d="M1161.87 63.4731C1160.43 63.605 1156.49 71.6468 1152.95 81.9297C1148.75 94.0584 1146.26 105.66 1146.26 112.779V137.827L1152.56 144.155L1152.69 144.287L1146.26 137.959" stroke="#FF1111" stroke-width="0.6" stroke-miterlimit="10" stroke-linejoin="round"/>
<path d="M1161.61 63.4729C1164.72 63.4729 1167.25 60.9349 1167.25 57.8041C1167.25 54.6733 1164.72 52.1353 1161.61 52.1353C1158.49 52.1353 1155.97 54.6733 1155.97 57.8041C1155.97 60.9349 1158.49 63.4729 1161.61 63.4729Z" fill="#FF1111"/>
<path d="M1167.51 127.939V120.029L1169.74 118.975V126.885L1167.51 127.939ZM1167.64 120.161V127.807L1169.61 126.885V119.238L1167.64 120.161Z" fill="#FF1111" stroke="#FF1111" stroke-width="0.45" stroke-miterlimit="10" stroke-linejoin="round"/>
<path d="M1163.71 129.653V121.743L1165.93 120.688V128.598L1163.71 129.653ZM1163.84 121.743V129.389L1165.8 128.467V120.82L1163.84 121.743Z" fill="#FF1111" stroke="#FF1111" stroke-width="0.45" stroke-miterlimit="10" stroke-linejoin="round"/>
<path d="M1159.51 131.498V123.588L1161.74 122.534V130.444L1159.51 131.498ZM1159.64 123.72V131.366L1161.61 130.444V122.797L1159.64 123.72Z" fill="#FF1111" stroke="#FF1111" stroke-width="0.45" stroke-miterlimit="10" stroke-linejoin="round"/>
<path d="M1155.18 133.476V125.566L1157.54 124.511V132.421L1155.18 133.476ZM1155.31 125.566V133.212L1157.28 132.289V124.643L1155.31 125.566Z" fill="#FF1111" stroke="#FF1111" stroke-width="0.45" stroke-miterlimit="10" stroke-linejoin="round"/>
<path d="M1166.98 117.788V109.878L1169.21 108.823V116.733L1166.98 117.788ZM1167.11 109.878V117.524L1169.08 116.601V108.955L1167.11 109.878Z" fill="#FF1111" stroke="#FF1111" stroke-width="0.45" stroke-miterlimit="10" stroke-linejoin="round"/>
<path d="M1163.31 119.502V111.592L1165.54 110.537V118.447L1163.31 119.502ZM1163.31 111.592V119.238L1165.28 118.315V110.669L1163.31 111.592Z" fill="#FF1111" stroke="#FF1111" stroke-width="0.45" stroke-miterlimit="10" stroke-linejoin="round"/>
<path d="M1158.98 121.347V113.437L1161.21 112.383V120.293L1158.98 121.347ZM1159.12 113.437V121.084L1161.08 120.161V112.515L1159.12 113.437Z" fill="#FF1111" stroke="#FF1111" stroke-width="0.45" stroke-miterlimit="10" stroke-linejoin="round"/>
<path d="M1154.79 123.193V115.283L1157.02 114.229V122.138L1154.79 123.193ZM1154.92 115.415V123.061L1156.89 122.138V114.492L1154.92 115.415Z" fill="#FF1111" stroke="#FF1111" stroke-width="0.45" stroke-miterlimit="10" stroke-linejoin="round"/>
<path d="M1166.98 107.637V99.727L1169.21 98.6724V106.582L1166.98 107.637ZM1167.11 99.727V107.373L1169.08 106.45V98.8042L1167.11 99.727Z" fill="#FF1111" stroke="#FF1111" stroke-width="0.45" stroke-miterlimit="10" stroke-linejoin="round"/>
<path d="M1163.31 109.219V101.309L1165.54 100.254V108.164L1163.31 109.219ZM1163.31 101.441V109.087L1165.28 108.164V100.518L1163.31 101.441Z" fill="#FF1111" stroke="#FF1111" stroke-width="0.45" stroke-miterlimit="10" stroke-linejoin="round"/>
<path d="M1158.98 111.196V103.286L1161.21 102.231V110.141L1158.98 111.196ZM1159.12 103.286V110.932L1161.08 110.01V102.363L1159.12 103.286Z" fill="#FF1111" stroke="#FF1111" stroke-width="0.45" stroke-miterlimit="10" stroke-linejoin="round"/>
<path d="M1154.79 113.042V105.132L1157.02 104.077V111.987L1154.79 113.042ZM1154.92 105.132V112.778L1156.89 111.855V104.209L1154.92 105.132Z" fill="#FF1111" stroke="#FF1111" stroke-width="0.45" stroke-miterlimit="10" stroke-linejoin="round"/>
<path d="M1162.53 97.6175V89.7075L1164.75 88.6528V96.5628L1162.53 97.6175ZM1162.66 89.7075V97.3538L1164.62 96.431V88.9165L1162.66 89.7075Z" fill="#FF1111" stroke="#FF1111" stroke-width="0.45" stroke-miterlimit="10" stroke-linejoin="round"/>
<path d="M1158.33 99.595V91.685L1160.56 90.6304V98.5403L1158.33 99.595ZM1158.46 91.685V99.3313L1160.43 98.4085V90.7622L1158.46 91.685Z" fill="#FF1111" stroke="#FF1111" stroke-width="0.45" stroke-miterlimit="10" stroke-linejoin="round"/>
<path d="M1162.53 87.7303V79.8203L1164.75 78.7656V86.6756L1162.53 87.7303ZM1162.66 79.8203V87.4666L1164.62 86.5438V78.8975L1162.66 79.8203Z" fill="#FF1111" stroke="#FF1111" stroke-width="0.45" stroke-miterlimit="10" stroke-linejoin="round"/>
<path d="M1160.43 78.5017V70.5918L1162.66 69.5371V77.4471L1160.43 78.5017ZM1160.56 70.5918V78.2381L1162.53 77.3152V69.6689L1160.56 70.5918Z" fill="#FF1111" stroke="#FF1111" stroke-width="0.45" stroke-miterlimit="10" stroke-linejoin="round"/>
<path d="M1158.33 89.5755V81.6655L1160.56 80.6108V88.5208L1158.33 89.5755ZM1158.46 81.6655V89.3118L1160.43 88.389V80.7427L1158.46 81.6655Z" fill="#FF1111" stroke="#FF1111" stroke-width="0.45" stroke-miterlimit="10" stroke-linejoin="round"/>
<path d="M1234.66 145.604H1153.34L1171.7 137.694H1216.29L1234.66 145.604Z" fill="#FF1111" stroke="#FF1111" stroke-width="0.6" stroke-miterlimit="10" stroke-linejoin="round"/>
</g>
<g clip-path="url(#clip1_376_3)">
<path d="M245.613 296.989H208.387C205.994 296.989 204 295.01 204 292.637V235.796C204 219.707 206.393 204.541 210.647 193.067C214.902 181.462 220.751 175 227 175C233.249 175 238.965 181.462 243.353 193.067C247.607 204.541 250 219.839 250 236.06V236.192V236.324V292.768C250 295.01 248.006 296.989 245.613 296.989ZM204.931 236.72V292.637C204.931 294.483 206.526 296.065 208.387 296.065H245.613C247.474 296.065 249.069 294.483 249.069 292.637V235.928C249.069 202.827 239.231 175.923 227 175.923C214.769 175.923 204.931 202.827 204.931 235.928V236.72Z" fill="#FF1111"/>
<path d="M227 302C239.703 302 250 298.044 250 293.164C250 288.284 239.703 284.328 227 284.328C214.297 284.328 204 288.284 204 293.164C204 298.044 214.297 302 227 302Z" fill="#FF1111"/>
<path d="M249.468 283.669C249.468 288.548 239.364 292.505 226.867 292.505C214.37 292.505 204.266 288.548 204.266 283.669" stroke="#FF1111" stroke-width="0.6" stroke-miterlimit="10" stroke-linecap="round" stroke-linejoin="round"/>
<path d="M249.468 274.701C249.468 279.581 239.364 283.537 226.867 283.537C214.37 283.537 204.266 279.581 204.266 274.701" stroke="#FF1111" stroke-width="0.6" stroke-miterlimit="10" stroke-linecap="round" stroke-linejoin="round"/>
<path d="M249.468 265.865C249.468 270.745 239.364 274.701 226.867 274.701C214.37 274.701 204.266 270.745 204.266 265.865" stroke="#FF1111" stroke-width="0.6" stroke-miterlimit="10" stroke-linecap="round" stroke-linejoin="round"/>
<path d="M249.468 256.897C249.468 261.777 239.364 265.733 226.867 265.733C214.37 265.733 204.266 261.777 204.266 256.897" stroke="#FF1111" stroke-width="0.6" stroke-miterlimit="10" stroke-linecap="round" stroke-linejoin="round"/>
<path d="M249.468 248.062C249.468 252.941 239.364 256.897 226.867 256.897C214.37 256.897 204.266 252.941 204.266 248.062" stroke="#FF1111" stroke-width="0.6" stroke-miterlimit="10" stroke-linecap="round" stroke-linejoin="round"/>
<path d="M249.468 239.094C249.468 243.973 239.364 247.93 226.867 247.93C214.37 247.93 204.266 243.973 204.266 239.094" stroke="#FF1111" stroke-width="0.6" stroke-miterlimit="10" stroke-linecap="round" stroke-linejoin="round"/>
<path d="M249.203 231.708C247.341 235.928 238.168 239.093 227 239.093C215.301 239.093 205.729 235.533 204.532 231.049" stroke="#FF1111" stroke-width="0.6" stroke-miterlimit="10" stroke-linecap="round" stroke-linejoin="round"/>
<path d="M248.804 223.532C246.411 227.356 237.503 230.258 226.867 230.258C216.098 230.258 207.058 227.224 204.798 223.268" stroke="#FF1111" stroke-width="0.6" stroke-miterlimit="10" stroke-linecap="round" stroke-linejoin="round"/>
<path d="M248.006 215.619C244.815 218.916 236.572 221.422 226.867 221.422C217.295 221.422 209.052 219.048 205.729 215.619" stroke="#FF1111" stroke-width="0.6" stroke-miterlimit="10" stroke-linecap="round" stroke-linejoin="round"/>
<path d="M246.942 207.706C243.219 210.607 235.641 212.454 227 212.454C218.358 212.454 210.78 210.476 207.058 207.706" stroke="#FF1111" stroke-width="0.6" stroke-miterlimit="10" stroke-linecap="round" stroke-linejoin="round"/>
<path d="M245.081 200.057C240.959 202.167 234.445 203.618 227 203.618C219.555 203.618 213.04 202.167 208.919 200.057" stroke="#FF1111" stroke-width="0.6" stroke-miterlimit="10" stroke-linecap="round" stroke-linejoin="round"/>
<path d="M242.422 192.276C238.434 193.727 232.983 194.65 227 194.65C221.017 194.65 215.7 193.727 211.578 192.276" stroke="#FF1111" stroke-width="0.6" stroke-miterlimit="10" stroke-linecap="round" stroke-linejoin="round"/>
<path d="M238.833 184.495C235.376 185.286 231.255 185.814 226.867 185.814C222.613 185.814 218.625 185.286 215.168 184.495" stroke="#FF1111" stroke-width="0.6" stroke-miterlimit="10" stroke-linecap="round" stroke-linejoin="round"/>
<path d="M231.254 176.714C229.924 176.846 228.462 176.846 227 176.846C225.537 176.846 223.942 176.846 222.612 176.714" stroke="#FF1111" stroke-width="0.6" stroke-miterlimit="10" stroke-linecap="round" stroke-linejoin="round"/>
<path d="M246.278 288.285C242.289 290.79 235.11 292.505 227 292.505C218.89 292.505 211.711 290.79 207.723 288.285" stroke="#F9F9F9" stroke-width="0.6" stroke-miterlimit="10" stroke-linecap="round" stroke-linejoin="round"/>
</g>
<path d="M1113.5 693.5L1482 630.5L1509.5 1094L1113.5 693.5Z" fill="#65BEC8"/>
<path d="M1295.69 742.229C1296.09 741.7 1300.43 734.162 1303.58 724.11C1305.42 718.026 1306.47 712.207 1306.47 706.784C1306.61 700.039 1305.29 693.955 1302.66 688.665C1293.06 669.487 1280.44 655.6 1265.45 647.533C1253.74 641.184 1243.23 639.465 1234.42 638.539M1234.15 753.604L1234.28 638.407H1234.42C1243.23 639.2 1253.88 641.052 1265.45 647.268C1280.44 655.468 1293.06 669.355 1302.66 688.533C1305.29 693.823 1306.61 699.907 1306.47 706.784C1306.34 712.207 1305.42 718.026 1303.58 724.242C1300.43 734.691 1295.82 742.362 1295.69 742.494L1234.15 753.604Z" stroke="#FF1111" stroke-width="0.6" stroke-miterlimit="10" stroke-linecap="round" stroke-linejoin="round"/>
<path d="M1299.24 682.581C1294.25 672.265 1287.41 663.139 1278.73 655.468C1271.76 649.384 1263.61 644.226 1254.67 639.994C1239.28 633.116 1226.53 631.529 1226.39 631.529V631.397C1226.53 631.397 1239.41 632.852 1254.67 639.861C1263.74 643.961 1271.76 649.12 1278.73 655.336C1287.54 663.007 1294.38 672.132 1299.37 682.581H1299.24Z" stroke="#FF1111" stroke-width="0.6" stroke-miterlimit="10" stroke-linecap="round" stroke-linejoin="round"/>
<path d="M1244.94 639.994H1244.8V751.619H1244.94V639.994Z" stroke="#FF1111" stroke-width="0.6" stroke-miterlimit="10" stroke-linecap="round" stroke-linejoin="round"/>
<path d="M1255.45 642.903H1255.32V749.636H1255.45V642.903Z" stroke="#FF1111" stroke-width="0.6" stroke-miterlimit="10" stroke-linecap="round" stroke-linejoin="round"/>
<path d="M1265.97 647.532H1265.84V747.519H1265.97V647.532Z" stroke="#FF1111" stroke-width="0.6" stroke-miterlimit="10" stroke-linecap="round" stroke-linejoin="round"/>
<path d="M1276.62 654.807H1276.49V745.932H1276.62V654.807Z" stroke="#FF1111" stroke-width="0.6" stroke-miterlimit="10" stroke-linecap="round" stroke-linejoin="round"/>
<path d="M1287.54 665.52H1287.41V743.949H1287.54V665.52Z" stroke="#FF1111" stroke-width="0.6" stroke-miterlimit="10" stroke-linecap="round" stroke-linejoin="round"/>
<path d="M1297.4 679.142H1297.27V739.32H1297.4V679.142Z" stroke="#FF1111" stroke-width="0.6" stroke-miterlimit="10" stroke-linecap="round" stroke-linejoin="round"/>
<path d="M1305.29 695.146V695.278L1234.55 707.578" stroke="#FF1111" stroke-width="0.6" stroke-miterlimit="10" stroke-linecap="round" stroke-linejoin="round"/>
<path d="M1295.69 676.232V676.365L1232.84 686.284" stroke="#FF1111" stroke-width="0.6" stroke-miterlimit="10" stroke-linecap="round" stroke-linejoin="round"/>
<path d="M1278.47 656.262L1278.6 656.394L1230.21 662.742" stroke="#FF1111" stroke-width="0.6" stroke-miterlimit="10" stroke-linecap="round" stroke-linejoin="round"/>
<path d="M1305.29 717.365V717.497L1234.55 728.739" stroke="#FF1111" stroke-width="0.6" stroke-miterlimit="10" stroke-linecap="round" stroke-linejoin="round"/>
<path d="M1234.15 753.603L1226.53 746.594V631.529L1234.15 638.407V753.603Z" fill="#FF1111" stroke="#FF1111" stroke-width="0.6" stroke-miterlimit="10" stroke-linejoin="round"/>
<circle cx="1316.5" cy="34.5" r="20.5" fill="#FFD400"/>
<circle cx="1155.5" cy="270.5" r="20.5" fill="#FFD400"/>
<circle cx="63.5" cy="166.5" r="20.5" fill="#FFD400"/>
<circle cx="266.5" cy="468.5" r="20.5" fill="#FFD400"/>
<circle cx="9.5" cy="553.5" r="20.5" fill="#FFD400"/>
<circle cx="1379.5" cy="317.5" r="20.5" fill="#FFD400"/>
<circle cx="1158.5" cy="512.5" r="20.5" fill="#FFD400"/>
<circle cx="1433.5" cy="727.5" r="20.5" fill="#FFD400"/>
<circle cx="1265.5" cy="841.5" r="20.5" fill="#FFD400"/>
<defs>
<clipPath id="clip0_376_3">
<rect width="96" height="123" fill="white" transform="translate(1146 23)"/>
</clipPath>
<clipPath id="clip1_376_3">
<rect width="46" height="127" fill="white" transform="translate(204 175)"/>
</clipPath>
</defs>
</svg>
