<svg width="49" height="49" viewBox="0 0 49 49" fill="none" xmlns="http://www.w3.org/2000/svg">
<path d="M30.1539 24.9981H26.2236V39.0004H20.4038V24.9981H17.6347V20.0496H20.4038V16.8479C20.4038 14.5557 21.4925 10.9736 26.278 10.9736L30.5926 10.9897V15.7934H27.4613C26.9521 15.7934 26.2257 16.0489 26.2257 17.1417V20.0516H30.661L30.1539 24.9981ZM24.1489 0C10.8328 0 0 10.8328 0 24.1489C0 37.4629 10.8328 48.2977 24.1489 48.2977C37.4629 48.2977 48.2977 37.4629 48.2977 24.1489C48.2977 10.8328 37.4649 0 24.1489 0Z" fill="#F9F9F9"/>
<path d="M30.1539 24.9981H26.2236V39.0004H20.4038V24.9981H17.6347V20.0496H20.4038V16.8479C20.4038 14.5557 21.4925 10.9736 26.278 10.9736L30.5926 10.9897V15.7934H27.4613C26.9521 15.7934 26.2257 16.0489 26.2257 17.1417V20.0516H30.661L30.1539 24.9981ZM24.1489 0C10.8328 0 0 10.8328 0 24.1489C0 37.4629 10.8328 48.2977 24.1489 48.2977C37.4629 48.2977 48.2977 37.4629 48.2977 24.1489C48.2977 10.8328 37.4649 0 24.1489 0Z" fill="black"/>
</svg>
