<svg width="173" height="173" viewBox="0 0 173 173" fill="none" xmlns="http://www.w3.org/2000/svg">
<g clip-path="url(#clip0_418_49)">
<path opacity="0.99" d="M62.6618 3.40551C63.5131 3.57579 64.5348 3.91634 65.3862 4.08661C62.6618 4.76772 59.9374 5.61909 57.3832 6.64075H57.2129C57.2129 6.64075 57.2129 6.64075 57.0427 6.64075H56.8724C56.8724 6.64075 56.8724 6.64075 56.7021 6.64075C56.3616 6.64075 55.6805 6.47047 54.4885 6.3002C57.2129 5.10827 59.9374 4.25689 62.6618 3.40551ZM65.897 3.91634C68.962 3.23524 72.0269 2.55413 75.0919 2.21358C74.9216 1.87303 74.7513 1.53248 74.5811 1.19193C74.2405 1.53248 73.7297 2.04331 73.3891 2.38386C73.7297 1.87303 74.0702 1.3622 74.4108 0.851378C70.835 1.3622 67.2592 2.04331 63.6834 3.06496C64.5348 3.40551 65.3862 3.74606 65.897 3.91634ZM76.9649 0.510827H76.7946C76.7946 0.681102 76.9649 0.681102 76.9649 0.851378C76.9649 0.851378 76.9649 0.681102 76.9649 0.510827ZM29.9689 22.8169C36.9502 16.687 44.7828 11.5787 53.4669 8.00295C52.9561 7.49213 52.7858 7.15157 53.6372 7.15157C55.1696 7.15157 55.1696 6.81102 53.8074 6.47047C53.6372 6.47047 53.6372 6.64075 53.4669 6.64075C53.9777 6.81102 54.3183 7.15157 53.6372 6.9813C53.2966 6.9813 53.1263 6.81102 52.9561 6.81102C43.9315 10.5571 35.588 16.0059 28.2661 22.4764C28.9472 22.6467 29.458 22.8169 29.9689 22.8169ZM166.7 55.3396C166.36 55.3396 166.019 55.1693 165.678 55.1693C167.041 58.5748 168.233 62.1506 169.084 65.8967C169.595 66.0669 170.106 66.2372 170.616 66.2372C169.765 62.4911 168.573 58.9153 167.211 55.5098C167.041 55.3396 166.87 55.3396 166.7 55.3396ZM17.709 35.4173C18.0496 34.9065 18.5604 34.5659 18.7307 34.7362C21.9659 30.4793 25.5417 26.7333 29.458 23.1575C28.9472 22.9872 28.4364 22.9872 27.9255 22.8169C23.8389 26.563 20.0929 30.6496 16.6874 35.247C17.1982 35.247 17.3685 35.4173 17.709 35.4173ZM121.237 8.3435C121.066 8.3435 121.066 8.51378 120.896 8.51378C121.747 8.85433 122.428 9.19488 123.28 9.53543C123.11 9.36516 123.11 9.36516 122.939 9.19488C122.258 8.3435 122.428 8.17323 123.45 8.85433C124.472 9.53543 124.812 10.2165 124.812 10.3868C133.496 14.814 141.159 20.6033 147.8 27.4144C145.245 22.3061 151.035 28.0955 147.97 27.5846C149.162 28.7766 150.183 29.9685 151.375 31.3307C153.419 31.6713 154.1 31.8415 152.738 31.8415C152.397 31.8415 152.056 31.8415 151.886 31.8415C154.781 35.4173 157.505 39.1634 159.889 43.25C160.059 42.7392 160.23 42.2283 160.4 41.7175C159.038 39.5039 157.505 37.2904 155.973 35.247C155.292 35.4173 154.44 35.4173 154.781 34.3957C154.781 34.2254 154.951 34.0551 155.121 33.8848C154.44 33.0335 153.929 32.1821 153.248 31.3307C152.908 31.3307 151.886 31.3307 151.886 31.1604C151.886 30.9902 152.397 30.9902 152.908 31.1604H153.078C150.694 28.2657 148.14 25.5413 145.416 22.9872C143.032 22.1358 141.499 21.2844 143.543 21.625C143.713 21.625 143.883 21.625 143.883 21.625C137.072 15.6654 129.41 10.8976 121.066 7.15157L121.237 8.3435ZM161.592 43.9311C161.592 43.7608 161.592 43.7608 161.592 43.5905C161.592 43.5905 161.592 43.4203 161.422 43.4203C161.251 44.1014 161.081 44.7825 160.911 45.2933C162.614 48.3583 164.146 51.5935 165.508 54.999C166.019 55.1693 166.53 55.1693 167.041 55.3396C165.849 52.1043 164.316 49.0394 162.784 45.9744C162.443 45.2933 161.932 44.6122 161.592 43.9311ZM107.274 3.91634C106.082 3.57579 104.72 3.23524 103.528 3.06496C100.463 2.38386 97.5683 2.04331 94.6736 1.70276C94.333 1.53248 94.1627 1.3622 93.8222 1.19193C93.4816 1.02165 93.6519 1.19193 94.333 1.70276C91.7789 1.53248 89.395 1.3622 86.8409 1.3622C86.3301 1.19193 85.8192 1.02165 85.3084 1.19193C85.4787 0.851378 85.649 0.510827 85.8192 0.170276C91.0978 0.170276 96.3763 0.510827 101.655 1.53248C101.655 2.72441 102.677 2.89468 103.698 2.55413L101.825 1.53248C101.995 1.53248 102.336 1.53248 102.506 1.70276C102.677 1.70276 102.847 1.87303 103.017 1.87303C103.358 1.70276 103.698 1.70276 103.868 1.70276C104.039 1.87303 104.55 2.04331 105.571 2.04331C107.785 2.55413 109.828 3.06496 112.042 3.74606C112.723 4.25689 114.085 4.76772 114.936 5.10827C114.426 4.76772 114.085 4.59744 114.085 4.42717C115.788 4.93799 117.491 5.61909 119.193 6.3002C118.853 6.3002 118.682 6.3002 118.512 6.47047C118.512 6.47047 119.193 6.64075 120.045 6.81102C120.045 7.15157 120.045 7.49213 120.045 7.6624C119.193 7.32185 118.342 7.15157 117.491 7.15157C114.766 6.12992 112.042 5.10827 109.317 4.42717C109.147 4.08661 108.977 3.91634 108.977 3.74606C108.636 3.06496 107.955 3.23524 107.274 3.91634ZM97.9088 1.53248C97.0574 1.02165 97.2277 1.19193 97.5683 1.53248C97.7385 1.53248 97.7385 1.53248 97.9088 1.53248ZM83.0948 0.510827C83.6057 0.681102 83.9462 0.681102 84.1165 0.681102C84.1165 0.510827 84.2868 0.170276 84.2868 0C82.7543 0 81.3921 0.170276 79.8596 0.170276C81.3921 0.340551 83.9462 0.510827 83.0948 0.510827ZM77.9866 0.510827C77.9866 1.02165 77.8163 1.3622 77.8163 1.87303C79.8596 1.70276 81.9029 1.53248 83.9462 1.53248C83.9462 1.3622 83.9462 1.19193 83.9462 1.02165C83.0948 1.02165 80.2001 0.851378 80.0299 1.02165C79.0082 0.851378 78.6677 0.681102 78.6677 0.510827C78.4974 0.340551 78.3271 0.340551 77.9866 0.510827ZM134.518 156.994C135.199 156.994 135.71 157.164 136.391 157.335C135.71 156.994 135.199 156.824 135.199 156.483C130.431 159.718 125.493 162.443 120.215 164.656C120.726 164.827 121.237 165.167 121.747 165.508C126.685 163.294 131.623 160.74 136.051 157.505C135.369 157.335 134.859 157.164 134.518 156.994ZM118.682 165.338C115.277 166.7 111.531 168.062 107.785 168.913C108.636 169.254 109.488 169.594 109.828 169.765C113.234 168.743 116.469 167.551 119.534 166.359C118.682 166.189 118.172 166.019 118.682 165.338ZM107.104 169.084C106.933 169.084 106.593 169.254 106.423 169.254C106.933 169.424 107.274 169.594 107.274 169.594C107.444 169.594 106.252 169.594 105.06 169.594C95.6952 171.638 85.8192 172.319 75.773 170.957C75.773 171.297 75.773 171.808 75.6027 172.319C87.1814 173.851 98.7602 172.83 109.488 169.935C108.977 169.765 108.125 169.424 107.104 169.084ZM137.583 156.313C144.905 150.864 151.546 144.394 156.824 136.902C156.484 136.902 156.143 136.902 155.973 136.902C155.803 136.902 155.632 136.902 155.121 136.902C153.589 139.115 151.886 141.158 150.013 143.202C149.673 143.883 149.332 144.564 149.162 144.905C148.991 145.415 148.821 145.075 148.651 144.564C144.564 148.991 139.967 152.907 135.029 156.313C135.71 156.143 136.391 156.143 137.583 156.313ZM22.9876 143.202C21.4551 141.499 20.0929 139.796 18.7307 137.923C18.5604 138.434 18.0496 138.604 17.709 138.775C29.9689 154.951 48.0181 166.87 69.4728 171.297C71.3458 171.638 73.3891 171.978 75.2622 172.319C75.4324 171.808 75.4324 171.297 75.4324 170.957C73.5594 170.786 71.5161 170.446 69.6431 169.935C51.083 166.189 35.2474 156.654 23.4984 143.713C22.9876 143.542 22.8173 143.372 22.9876 143.202ZM1.70311 69.3022C0.340905 75.7726 -0.169922 82.2431 0.000353709 88.5433C0.51118 88.7136 0.851732 88.7136 1.36256 88.8839C1.19228 82.5837 1.70311 76.1132 3.06531 69.6427C3.74642 65.8967 4.76807 62.3209 5.96 58.7451C5.2789 59.4262 4.59779 59.937 3.91669 60.6181C3.06531 63.3425 2.38421 66.4075 1.70311 69.3022ZM17.1982 138.093C17.1982 137.583 17.5387 136.902 17.709 136.561C13.2818 130.601 9.87634 124.301 7.15193 117.49C6.47083 117.32 5.96 117.32 5.61945 117.15C8.51413 124.642 12.4305 131.793 17.1982 138.093ZM16.1765 38.4823C16.1765 38.312 16.1765 38.1417 16.3468 37.8012C16.0063 38.312 16.6874 36.9498 17.5387 35.9281C17.1982 35.9281 16.8576 35.7579 16.6874 35.7579C13.6224 40.0148 10.898 44.6122 8.51413 49.3799C8.68441 50.061 8.85468 50.5718 9.19524 51.2529C11.0683 46.6555 13.4521 42.5689 16.1765 38.4823ZM4.76807 114.936C4.93835 114.936 5.10862 115.106 4.93835 115.106C4.93835 115.106 4.93835 115.106 4.76807 114.936C4.93835 115.447 5.10862 116.128 5.2789 116.639L6.98165 117.32C3.57614 108.466 1.53283 98.9301 1.19228 89.2244C0.681456 89.2244 0.340905 89.0541 -0.169922 89.0541C0.340905 97.9085 1.87338 106.763 4.76807 114.936ZM171.298 103.698C170.616 106.933 169.765 109.998 168.743 113.063C168.233 112.893 167.892 112.893 167.381 112.722C168.403 109.657 169.254 106.593 169.935 103.357C170.276 101.314 170.616 99.4409 170.957 97.3976C171.127 97.3976 171.298 97.3976 171.468 97.3976C171.979 97.3976 172.319 97.3976 172.319 97.3976C172.149 99.6112 171.808 101.655 171.298 103.698ZM170.276 106.763C171.468 105.741 171.638 97.9085 170.957 102.846C170.446 105.06 169.765 107.274 170.276 106.763ZM172.149 74.751C172.149 74.9213 172.149 75.0915 172.319 75.0915C172.319 74.9212 172.319 74.5807 172.149 74.2402H171.979C171.638 74.2402 171.127 74.2402 170.787 74.0699C171.808 81.3917 171.979 89.0541 170.957 96.7165C171.468 96.8868 171.979 97.0571 172.319 97.0571C172.66 94.6732 172.83 92.2894 173 89.9055C173.171 85.1378 173 80.5403 172.49 75.9429C171.298 75.6024 171.468 75.2618 172.149 74.751ZM155.803 136.05C156.484 136.05 156.994 136.22 157.165 136.22H157.335C157.505 136.05 157.676 135.71 157.846 135.369C157.335 135.199 156.824 135.199 156.313 135.029C156.143 135.539 155.973 135.88 155.803 136.05ZM164.997 119.533C165.508 119.533 165.849 119.704 166.36 119.704C166.7 118.852 167.041 118.001 167.381 117.15C167.211 117.15 167.041 117.15 167.041 117.15C166.87 117.15 166.53 117.15 166.019 117.15C165.678 117.831 165.338 118.682 164.997 119.533ZM162.443 128.047C163.295 126.344 164.316 124.642 164.997 122.769C164.487 122.598 164.146 122.598 163.635 122.428C162.784 124.131 161.932 125.834 161.081 127.536C161.592 127.877 161.932 127.877 162.443 128.047ZM164.827 120.215C164.487 120.896 164.146 121.747 163.805 122.428C164.316 122.598 164.657 122.598 165.168 122.769C165.508 122.088 165.849 121.236 166.189 120.555C165.338 120.385 164.997 120.385 164.827 120.215ZM56.8724 6.64075C56.7021 6.64075 56.5318 6.81102 56.5318 6.81102C56.5318 6.81102 56.7021 6.81102 56.8724 6.64075C56.7021 6.64075 56.7021 6.64075 56.8724 6.64075ZM156.654 134.858C157.165 135.029 157.505 135.029 158.016 135.199C159.378 133.156 160.74 131.112 161.932 128.899C161.592 128.728 161.081 128.388 160.911 128.218C159.549 130.431 158.186 132.645 156.654 134.858ZM168.743 113.233C168.233 113.233 167.892 113.063 167.381 113.063C167.041 114.255 166.7 115.277 166.189 116.468C166.7 116.468 167.211 116.468 167.552 116.639C168.062 115.447 168.403 114.425 168.743 113.233ZM162.273 128.218C161.762 128.047 161.422 127.877 161.081 127.707C161.081 127.877 160.911 127.877 160.911 128.047C161.081 128.047 161.081 128.218 161.251 128.218C161.592 128.388 161.932 128.558 161.932 128.728C162.103 128.558 162.273 128.388 162.273 128.218ZM170.106 69.9833C170.276 71.1752 170.616 72.3671 170.787 73.5591C171.468 73.7293 171.979 73.8996 172.149 74.0699C171.979 72.3671 171.638 70.6644 171.298 69.1319C170.957 69.4724 170.616 69.6427 170.276 69.813C170.276 69.813 170.106 69.813 170.106 69.9833ZM112.893 162.443C111.361 162.954 109.658 163.635 107.955 163.975C108.125 163.805 108.125 164.146 108.125 164.997C107.955 165.167 107.955 165.338 107.785 165.508C109.658 164.997 111.701 164.316 113.574 163.635C113.234 163.294 113.063 162.783 112.893 162.443ZM136.051 151.545C135.88 151.205 135.88 150.694 135.88 150.013C134.859 150.864 133.667 151.716 132.645 152.397C133.326 152.567 133.837 152.737 133.667 152.737C133.496 152.737 132.986 152.567 132.475 152.567C127.196 156.143 121.577 159.208 115.617 161.592C116.128 161.932 116.469 162.273 116.639 162.613C123.62 159.718 130.261 155.972 136.051 151.545ZM152.738 39.6742C152.397 39.6742 152.056 39.5039 151.716 39.5039C152.908 41.2067 154.1 42.9094 155.121 44.6122C155.292 43.9311 155.462 43.4203 155.632 42.9094C154.951 41.8878 154.27 40.8661 153.589 39.8445C153.248 39.8445 152.908 39.6742 152.738 39.6742ZM147.118 31.6713C149.332 34.2254 151.375 36.7795 153.419 39.5039C152.738 39.3337 152.227 39.3337 151.546 39.1634C147.8 34.0551 143.713 29.4577 138.945 25.3711C139.286 25.0305 139.456 24.8602 139.115 24.8602C138.945 24.8602 138.605 24.8602 138.264 24.8602C131.964 19.5817 124.983 15.3248 117.32 12.0896C117.491 12.0896 117.49 12.0896 117.831 12.2598C119.023 12.6004 121.066 12.9409 122.599 13.1112C124.983 14.3031 127.196 15.4951 129.41 16.8573C129.58 17.5384 130.942 18.3898 131.453 18.2195C137.242 21.9655 142.351 26.3927 146.778 31.501C146.778 31.3307 146.948 31.501 147.118 31.6713ZM124.472 14.814C123.28 14.4734 123.28 14.4734 124.472 14.814C127.026 15.8356 127.366 15.6654 124.472 14.814ZM5.96 84.627C5.96 84.9675 5.44917 85.9892 4.93835 86.8405C4.93835 87.8622 4.93835 88.7136 4.93835 89.7352C5.44917 89.9055 5.96 89.9055 6.30055 90.0758C6.13027 85.6486 6.30055 81.0512 6.81138 76.4537C6.81138 76.4537 6.6411 76.4537 6.47083 76.2835C6.6411 76.2835 6.6411 76.2835 6.81138 76.2835C6.98165 74.4104 7.3222 72.5374 7.66275 70.4941C7.66275 70.1535 7.83303 69.9833 7.83303 69.6427C7.3222 69.6427 6.98165 69.4724 6.47083 69.4724C6.47083 69.6427 6.30055 69.9833 6.30055 70.1535C5.2789 75.0915 4.76807 79.8592 4.76807 84.627C5.2789 84.1161 5.78972 83.9459 5.96 84.627ZM8.68441 106.422C7.3222 101.144 6.47083 95.6949 6.30055 90.0758C5.96 90.0758 5.44917 89.9055 4.93835 89.9055C5.10862 95.8652 6.13027 101.825 7.66275 107.444C7.83303 106.933 8.17358 106.593 8.68441 106.422ZM104.55 7.83268C104.55 8.00295 104.55 8.00295 104.379 8.17323C103.698 8.00295 103.017 7.83268 102.336 7.6624C93.8222 5.95965 85.3084 5.61909 77.1352 6.64075C77.1352 6.12992 77.1352 5.78937 77.3055 5.27854C85.4787 4.42717 93.9925 4.59744 102.506 6.47047C103.187 6.64075 104.039 6.81102 104.72 6.9813C104.72 7.15157 104.55 7.32185 104.55 7.49213C104.039 7.32185 103.868 7.49213 104.55 7.83268ZM97.0574 5.95965C96.5466 5.78937 93.9925 5.61909 92.6303 5.44882C91.2681 5.44882 95.1844 6.12992 96.2061 6.12992C97.2277 6.12992 97.5683 6.12992 97.0574 5.95965ZM114.255 9.70571C113.574 9.36516 113.063 9.19488 112.382 9.02461C112.382 9.02461 112.042 9.02461 111.871 9.02461C112.212 9.53543 112.382 10.0463 112.723 10.5571C114.085 11.0679 115.447 11.5787 116.809 12.0896C116.809 11.9193 118.682 12.2598 119.874 12.2598C120.215 12.2598 120.726 12.4301 121.066 12.4301C119.534 11.749 117.831 11.0679 116.299 10.3868C115.447 10.2165 114.766 10.0463 114.255 9.70571ZM9.19524 112.722C12.771 123.45 18.5604 133.156 26.0525 141.499C26.5633 141.499 26.9039 141.499 27.2444 141.669C27.585 141.84 28.0958 142.01 28.6067 142.35C20.6037 134.007 14.4738 123.961 10.5574 112.893L9.19524 112.722ZM28.7769 144.394C28.9472 144.394 28.9472 144.564 28.7769 144.394C29.7986 144.734 30.9905 145.245 30.1391 145.075C29.9689 145.075 29.7986 145.075 29.458 145.075C36.2691 151.716 44.1017 157.164 53.1263 161.081C53.4669 160.74 53.8074 160.4 54.148 160.059C45.2937 156.143 37.461 150.864 30.8202 144.394C29.9689 144.394 29.1175 144.394 28.7769 144.394ZM86.8409 168.232C91.2681 168.232 95.5249 167.892 99.7818 167.211C98.7602 166.87 97.9088 166.7 98.0791 166.7C98.2494 166.7 99.1007 166.87 100.122 167.04C102.506 166.7 104.89 166.189 107.274 165.508C107.444 164.997 107.785 164.146 108.125 163.975C101.485 165.848 94.5033 166.87 87.522 166.87C87.3517 167.551 87.1814 167.892 86.8409 168.232ZM53.9777 161.592C59.086 163.805 64.5348 165.508 70.3242 166.7C70.4944 166.7 70.6647 166.7 70.6647 166.7C70.4944 166.359 70.1539 165.848 69.9836 165.338C64.7051 164.316 59.7671 162.613 54.9994 160.74C54.8291 160.91 54.3183 161.251 53.9777 161.592ZM84.6273 168.232C84.2868 167.892 83.7759 167.551 83.4354 166.87C80.8812 166.7 78.1568 166.53 75.6027 166.189C74.5811 166.53 73.2188 166.7 72.5377 167.04C76.6244 167.721 80.711 168.232 84.6273 168.232ZM10.5574 112.722C9.87634 110.849 9.36551 108.976 8.85468 107.103C8.51413 107.444 8.17358 107.955 7.83303 108.295C8.17358 109.828 8.51413 111.19 9.02496 112.382C9.53579 112.552 10.0466 112.722 10.5574 112.722ZM34.2257 23.6683C34.7366 23.8386 35.4177 23.8386 35.9285 24.0089C36.4393 23.498 37.1204 23.1575 37.8015 22.6467C36.9502 21.9655 37.1204 21.625 37.8015 21.1142C37.8015 21.4547 37.9718 21.9655 38.1421 22.4764C43.9315 18.0492 50.2316 14.4734 57.0427 11.749C57.0427 11.2382 57.0427 10.8976 56.8724 10.3868C48.6992 13.622 41.0368 18.0492 34.2257 23.6683ZM60.1076 9.19488C59.5968 9.36516 59.086 9.53543 58.7454 9.70571C58.9157 10.2165 59.086 10.5571 59.086 11.0679C64.5348 9.02461 70.1539 7.6624 75.9433 6.9813C75.9433 6.47047 76.1135 6.12992 76.1135 5.61909C71.1755 6.3002 66.4078 7.32185 61.6401 8.85433C62.3212 9.19488 63.0023 9.36516 62.6618 9.36516C62.3212 9.19488 61.2996 9.19488 60.1076 9.19488ZM155.632 45.6339C157.165 48.188 158.697 50.9124 159.889 53.6368C160.4 53.8071 160.911 53.8071 161.592 53.9774C160.059 50.2313 158.016 46.6555 155.973 43.25C155.803 44.1014 155.803 44.7825 155.632 45.6339ZM21.9659 36.439C22.4767 36.6092 22.9876 36.6092 23.4984 36.7795C27.0742 32.3524 30.9905 28.2657 35.4177 24.69C34.9068 24.5197 34.396 24.5197 33.8852 24.3494C29.2878 27.7549 25.3714 31.8415 21.9659 36.439ZM8.34386 62.8317C8.85468 62.8317 9.36551 62.8317 9.87634 62.6614C11.4088 57.5531 13.4521 52.6152 16.0063 48.0177C15.4954 47.8474 15.1549 47.6772 14.8143 47.5069C12.0899 52.2746 9.87634 57.3829 8.34386 62.8317ZM6.6411 69.1319C7.15193 69.1319 7.49248 69.3022 8.00331 69.3022C8.34386 67.7697 8.68441 66.2372 9.19524 64.7047C8.85468 64.5344 8.34386 64.3642 8.00331 64.1939C7.49248 65.7264 6.98165 67.4291 6.6411 69.1319ZM16.1765 47.5069C18.2198 43.7608 20.6037 40.185 23.1578 36.9498C22.647 36.7795 22.1362 36.7795 21.6254 36.6092C19.0712 40.0148 16.6874 43.4203 14.6441 47.1663C15.1549 47.3366 15.6657 47.5069 16.1765 47.5069ZM161.762 54.4882C161.251 54.3179 160.74 54.3179 160.23 54.1476C161.251 56.3612 162.103 58.5748 162.784 60.7884C162.954 60.1073 163.124 59.4262 163.124 59.0856C163.124 58.5748 163.124 58.2342 163.295 57.8937C162.614 56.7018 162.103 55.5098 161.762 54.4882ZM163.124 58.064C163.124 58.5748 163.124 59.0856 163.124 59.937C163.124 60.4478 163.124 61.1289 162.954 61.81C163.295 62.8317 163.635 63.6831 163.976 64.7047C164.487 64.875 164.997 64.875 165.508 65.0453C165.168 64.0236 164.997 63.002 164.657 61.9803C163.976 60.6181 163.635 59.2559 163.124 58.064ZM144.394 144.223C144.224 143.713 144.224 143.202 144.053 142.691C143.883 142.861 143.883 142.861 143.713 143.031C143.883 143.542 143.883 144.053 143.883 144.564C144.053 144.564 144.224 144.394 144.394 144.223ZM138.264 149.672C138.605 149.502 138.775 149.161 139.115 148.991C138.945 148.991 138.775 148.991 138.605 148.991C138.434 149.332 138.434 149.502 138.264 149.672ZM139.115 147.288C138.945 147.629 138.945 148.14 138.775 148.48C139.286 147.799 139.797 147.118 139.967 146.437C139.626 146.778 139.456 147.118 139.115 147.288ZM151.546 134.007C150.524 135.369 149.502 136.731 148.31 138.093C148.31 138.264 148.481 138.264 148.481 138.434C148.821 138.434 149.162 138.264 149.502 138.264C149.673 137.923 149.673 137.583 149.843 137.072C150.013 135.369 150.694 135.71 150.865 136.902C151.546 136.05 152.056 135.369 152.738 134.518C152.056 134.177 151.716 134.007 151.546 134.007ZM160.23 118.852C160.911 118.852 161.422 119.023 161.592 119.023C162.443 117.15 163.295 115.106 163.976 113.063C163.465 112.893 163.124 112.893 162.614 112.722C161.932 114.766 161.081 116.809 160.23 118.852ZM163.976 112.552C163.295 112.552 163.124 112.552 163.805 112.893C163.976 112.893 163.976 112.722 163.976 112.552ZM160.4 121.406C160.4 121.236 160.57 121.066 160.57 120.896C158.867 120.896 159.208 121.066 160.4 121.406ZM154.44 129.75C154.951 129.92 155.292 129.92 155.803 130.091C156.313 129.239 156.824 128.558 157.165 127.707C156.994 127.707 156.994 127.707 156.824 127.536L157.676 126.685C158.357 125.323 159.208 123.961 159.889 122.598C159.378 122.598 158.867 122.428 158.527 122.258C157.335 124.812 155.973 127.366 154.44 129.75ZM158.867 121.747C159.038 121.747 159.208 121.747 159.549 121.747C159.719 121.747 159.889 121.747 160.059 121.747C159.549 121.747 159.208 121.577 158.867 121.747C158.867 121.577 158.867 121.577 158.867 121.747ZM165.849 73.0482C167.552 82.5837 167.381 92.4596 165.508 102.506C165.508 102.676 165.338 102.846 165.338 103.187C165.508 103.187 165.678 103.187 166.189 103.187C166.36 103.187 166.53 103.187 166.7 103.187C166.7 103.017 166.7 102.846 166.87 102.676C168.914 92.8002 168.914 82.7539 167.381 73.3888C166.7 73.2185 166.189 73.2185 165.849 73.0482ZM151.716 133.666C151.886 133.666 151.886 133.666 152.056 133.837C152.227 133.837 152.567 134.007 153.078 134.007C153.929 132.815 154.781 131.453 155.632 130.261C155.292 130.261 154.781 130.091 154.44 130.091H154.27C153.419 131.112 152.567 132.304 151.716 133.666ZM165.168 103.187C164.487 106.252 163.805 109.147 162.784 111.871C163.124 111.871 163.635 112.041 164.146 112.041C164.997 109.147 165.849 106.252 166.53 103.357C166.189 103.357 166.019 103.357 166.189 103.357C166.36 103.528 165.508 103.357 165.168 103.187ZM164.657 67.7697C164.997 69.3022 165.338 70.8346 165.678 72.3671C166.189 72.3671 166.53 72.5374 167.041 72.5374C166.7 71.0049 166.53 69.4724 166.189 67.94C165.678 67.94 165.168 67.7697 164.657 67.7697ZM163.976 65.2155C164.146 65.8967 164.316 66.4075 164.487 67.0886C164.997 67.2589 165.508 67.4291 166.019 67.5994C165.849 67.0886 165.678 66.4075 165.678 65.8967C165.168 65.5561 164.657 65.3858 163.976 65.2155ZM159.378 120.725C159.719 120.725 160.23 120.896 160.741 120.896C160.911 120.385 161.081 119.874 161.422 119.533C160.911 119.533 160.741 119.363 160.57 119.533C160.4 119.533 160.23 119.533 160.059 119.533C159.719 119.874 159.549 120.215 159.378 120.725Z" fill="#65BEC8"/>
<g opacity="0.99">
<path opacity="0.99" d="M62.1504 49.38C65.0451 48.5286 67.5992 47.6772 70.3236 46.8258C72.1966 46.315 73.8994 45.6339 75.7724 45.1231C76.4535 44.9528 76.9644 44.6122 76.9644 43.7609C76.9644 43.25 77.1346 42.7392 77.3049 42.0581C76.9644 41.8878 76.6238 41.7176 76.4535 41.7176C76.4535 40.8662 76.7941 40.5256 77.4752 40.1851C79.5185 39.1634 81.5618 38.1418 83.7754 37.1201C84.4565 38.4823 85.3079 39.6743 85.989 40.8662C86.3295 41.5473 86.6701 41.7176 87.5215 41.377C89.735 40.5256 92.1189 39.8445 94.3325 39.1634C94.673 38.9931 95.1839 39.1634 95.3541 39.3337C102.165 45.9744 108.806 52.6152 115.447 59.2559C115.617 59.4262 115.617 59.5965 115.787 59.7668C111.871 61.129 107.784 62.4912 103.868 63.6831C96.7163 66.067 89.3945 68.4508 82.2429 71.005C81.7321 71.1752 81.3915 71.3455 80.8807 70.8347C74.7508 63.8534 68.6209 56.8721 62.4909 49.7205C62.4909 49.7205 62.3207 49.5502 62.1504 49.38Z" fill="#65BEC8"/>
<path opacity="0.99" d="M88.3726 78.327C84.6265 79.8594 81.0508 81.2216 77.3047 82.7541C77.6452 81.5622 77.9858 80.5405 78.3263 79.5189C79.0074 77.4756 79.6885 75.6026 80.3696 73.5592C80.5399 73.2187 80.7102 72.8781 81.0507 72.7079C92.7998 68.7915 104.719 64.7049 116.468 60.7886C116.638 60.7886 116.638 60.7886 116.809 60.7886C120.044 66.4077 123.449 72.0268 126.855 77.8161C125.493 78.6675 124.13 78.8378 122.768 78.4972C121.917 78.327 121.747 78.4972 121.576 79.3486C120.895 82.4136 120.384 85.4785 119.533 88.5435C119.363 89.0543 119.022 89.7354 118.511 90.076C115.106 92.2896 111.36 93.3112 107.273 92.4598C104.719 91.949 101.995 91.6085 99.6108 90.4165C95.6945 88.3732 92.6295 85.3083 90.2456 81.3919C89.5645 80.5405 89.0537 79.3486 88.3726 78.327Z" fill="#65BEC8"/>
<path opacity="0.99" d="M87.5225 81.7326C88.7144 83.265 89.736 84.9678 91.0982 86.5003C93.4821 89.2247 96.5471 90.9274 99.612 92.6302C105.231 95.6952 111.191 96.3763 117.321 94.6735C120.045 93.9924 122.259 92.4599 124.302 90.7572C124.643 90.4166 124.983 90.2463 125.324 89.9058C125.494 89.9058 125.494 90.0761 125.664 90.0761C128.218 93.3113 131.454 95.5249 134.859 97.7385C136.221 98.5898 137.583 99.4412 139.116 100.293C139.286 100.463 139.457 100.633 139.457 100.803C139.627 101.995 138.265 103.528 137.073 103.358C136.221 103.187 135.2 103.017 134.519 102.676C131.624 100.803 128.899 98.5898 126.005 96.5465C125.494 96.206 125.153 96.0357 124.472 96.5465C121.407 98.7601 118.002 100.122 114.426 100.803C111.361 101.314 108.126 101.144 105.061 100.633C97.3984 99.4412 91.6091 95.5249 86.8414 89.5652C86.3305 88.8841 85.8197 88.7139 85.1386 89.0544C82.2439 90.4166 79.3492 91.4383 75.9437 91.7788C71.5166 92.1194 67.4299 91.6085 63.173 90.5869C57.8945 89.395 53.6376 86.8408 49.8916 82.9245C48.3591 81.2217 46.8266 79.519 45.2941 77.6459C44.7833 77.1351 44.4427 76.9648 43.7616 77.1351C40.5264 78.327 37.2912 79.3487 34.0559 80.5406C33.3748 80.7109 32.5235 80.8812 31.8423 80.7109C30.3099 80.3703 29.9693 79.3487 29.799 77.6459C29.6288 76.6243 30.4801 75.9432 31.6721 75.4324C36.4398 73.7296 41.3778 72.0268 46.1455 70.3241C46.8266 69.9835 47.1671 70.1538 47.678 70.8349C49.7213 74.0701 51.7646 77.4757 54.6593 80.0298C60.9595 85.4786 68.4516 87.1814 76.6248 85.4786C80.0303 84.7975 83.4358 83.6056 86.5008 81.9028C86.8414 82.0731 87.0116 81.9028 87.5225 81.7326Z" fill="#65BEC8"/>
<path opacity="0.99" d="M61.9805 51.5938C65.7266 55.6804 69.1321 59.5967 72.7079 63.513C74.7512 65.7266 76.7945 67.9402 78.8378 70.1538C79.3486 70.6646 79.3486 71.0052 79.1783 71.6863C77.9864 75.2621 76.9647 78.8378 75.7728 82.5839C75.6025 83.265 75.262 83.4353 74.7512 83.6056C68.2807 84.7975 62.321 83.7758 57.5533 79.0081C56.1911 77.8162 55.1695 76.2837 53.9775 74.9215C53.4667 74.4107 53.4667 73.7296 53.637 73.0485C56.1911 66.4077 58.7453 59.767 61.2994 53.1262C61.6399 52.6154 61.8102 52.2749 61.9805 51.5938Z" fill="#65BEC8"/>
<path opacity="0.99" d="M84.7975 100.974C88.3733 101.655 91.7788 102.336 95.1843 103.187C97.0573 103.528 98.079 105.231 98.079 107.274C98.079 109.147 97.0573 110.679 95.3546 111.36C95.1843 111.36 95.014 111.531 94.8437 111.531C95.014 111.701 95.1843 111.871 95.1843 111.871C98.2493 113.574 97.2276 117.831 95.3546 119.363C94.5032 120.044 93.6518 120.555 92.6302 120.385C90.4166 120.044 88.203 119.704 85.8191 119.363C84.2866 119.193 82.7542 118.682 81.2217 118.512C82.4136 112.552 83.6055 106.763 84.7975 100.974ZM87.0111 115.617C88.203 115.788 89.2246 116.128 90.2463 116.298C91.2679 116.469 91.949 115.788 92.1193 114.936C92.2896 114.085 92.1193 113.233 91.0977 112.893C90.076 112.552 88.8841 112.382 87.6922 112.212C87.3516 113.233 87.1813 114.425 87.0111 115.617ZM88.203 108.806C89.3949 108.977 90.4166 109.147 91.4382 109.147C92.2896 109.147 92.8004 108.636 92.8004 107.785C92.9707 106.933 92.6302 106.252 91.949 106.082C90.9274 105.741 89.9057 105.571 88.8841 105.401C88.7138 106.593 88.5435 107.614 88.203 108.806Z" fill="#65BEC8"/>
<path opacity="0.99" d="M131.453 128.558C130.091 128.218 128.729 128.047 127.367 127.707C127.026 127.707 126.856 127.196 126.686 126.855C125.494 123.961 124.472 121.066 123.45 118.171C123.28 117.831 123.11 117.49 122.769 117.15C122.088 120.215 121.577 123.28 120.896 126.344C119.364 126.004 117.831 125.663 116.299 125.493C117.491 119.704 118.683 114.085 119.875 108.125C121.237 108.466 122.769 108.636 124.132 108.976C124.302 108.976 124.642 109.487 124.813 109.828C125.834 112.722 127.026 115.617 128.048 118.512C128.218 118.852 128.388 119.193 128.729 119.363C129.41 116.298 129.921 113.404 130.602 110.339C132.134 110.679 133.667 111.02 135.199 111.19C133.837 116.979 132.645 122.598 131.453 128.558Z" fill="#65BEC8"/>
<path opacity="0.99" d="M72.0272 116.469C70.3245 116.128 68.9623 115.787 67.2595 115.447C67.4298 114.766 67.6001 113.914 67.7703 113.233C68.1109 111.871 68.2812 110.509 68.6217 109.147C68.792 108.466 68.6217 108.295 67.9406 108.125C66.5784 107.955 65.3865 107.614 64.0243 107.274C63.3432 107.274 63.0026 107.614 63.0026 108.125C62.6621 110.168 62.1512 112.212 61.8107 114.255C60.1079 113.914 58.5754 113.574 57.043 113.233C58.2349 107.444 59.4268 101.655 60.6188 95.8652C62.1512 96.2058 63.6837 96.5463 65.3865 96.8869C65.0459 98.9302 64.5351 100.803 64.1945 102.847C66.0676 103.187 67.7703 103.528 69.8136 104.038C70.1542 102.165 70.665 100.122 71.0056 98.0788C72.7083 98.4194 74.2408 98.7599 75.9436 99.1005C74.4111 104.89 73.2192 110.679 72.0272 116.469Z" fill="#65BEC8"/>
<path opacity="0.99" d="M37.6309 109.487C39.6742 106.082 41.5472 102.846 43.4202 99.6113C44.6122 97.7382 45.6338 95.8652 46.8257 93.9922C47.1663 93.4813 47.3366 93.3111 48.0177 93.4813C49.3799 93.8219 50.7421 93.9922 51.934 94.3327C52.2746 94.3327 52.6151 94.8435 52.7854 95.0138C53.6368 100.803 54.3179 106.593 55.1692 112.382C55.1692 112.552 55.1692 112.722 55.1692 112.893C53.4665 112.552 51.7637 112.212 50.061 111.871C50.061 111.531 50.061 111.36 49.8907 111.02C49.7204 108.976 49.7204 108.976 47.6771 108.466C46.8257 108.295 45.8041 108.125 44.9527 107.955C44.4419 107.784 44.1013 107.955 43.9311 108.466C43.5905 109.147 43.25 110.168 42.7391 110.339C42.2283 110.679 41.2066 110.168 40.5255 109.998C39.5039 109.828 38.6525 109.658 37.6309 109.487ZM49.0393 98.5896H48.869C47.8474 100.463 46.996 102.336 45.9744 104.209C47.1663 104.379 48.3582 104.72 49.5501 104.89C49.3799 102.846 49.2096 100.633 49.0393 98.5896Z" fill="#65BEC8"/>
<path opacity="0.99" d="M110.85 116.98C112.212 117.661 113.404 118.512 114.766 119.193C113.574 122.599 110.679 124.472 107.103 123.791C106.252 123.62 105.401 123.45 104.549 123.109C100.633 121.747 99.4411 118.171 99.6113 115.107C99.7816 113.404 100.122 111.701 100.633 110.169C102.506 105.231 106.763 104.379 111.02 105.741C114.085 106.763 115.617 108.977 115.958 112.212C114.596 112.212 113.233 112.382 111.701 112.382C111.531 112.382 111.36 112.042 111.36 111.871C110.85 110.169 110.168 109.487 108.636 109.317C107.444 109.147 106.252 109.998 105.571 111.19C104.72 112.893 104.379 114.766 104.549 116.639C104.72 118.171 105.401 119.023 106.593 119.363C108.125 119.704 109.147 119.363 109.998 118.171C110.339 118.001 110.509 117.49 110.85 116.98Z" fill="#65BEC8"/>
<path opacity="0.99" d="M31.1605 101.314C30.6497 103.528 30.3092 105.571 29.7983 107.784C28.0956 107.444 26.5631 107.103 24.8604 106.763C26.0523 100.973 27.2442 95.3543 28.4361 89.5649C28.7767 89.5649 29.1172 89.5649 29.2875 89.7352C31.8417 90.246 34.3958 90.7569 36.7796 91.2677C40.0149 91.9488 41.3771 93.9921 40.8663 97.3976C40.1852 101.144 37.9716 102.676 34.2255 102.165C33.3741 101.825 32.3525 101.655 31.1605 101.314ZM32.0119 97.9084C33.3741 98.0787 34.7363 98.7598 35.758 97.5679C36.4391 96.8868 36.4391 96.0354 36.0985 95.184C35.4174 93.9921 34.0552 94.1624 32.8633 93.8218C32.5228 95.3543 32.1822 96.5462 32.0119 97.9084Z" fill="#65BEC8"/>
</g>
</g>
<defs>
<clipPath id="clip0_418_49">
<rect width="173" height="173" fill="white"/>
</clipPath>
</defs>
</svg>
