<svg width="1440" height="850" viewBox="0 0 1440 850" fill="none" xmlns="http://www.w3.org/2000/svg">
<path d="M486 433.13L-23.5 242L-79 850L404 684.252L486 433.13Z" fill="#65BEC8"/>
<path d="M1323.5 43L1478 158V372H1299.5L1089.5 106.5L1323.5 43Z" fill="#65BEC8"/>
<path d="M1332.21 28.7998L1324.2 34.8491V143.474L1332.21 137.424V28.7998Z" fill="#FF1111" stroke="#FF1111" stroke-width="0.6" stroke-miterlimit="10" stroke-linecap="round" stroke-linejoin="round"/>
<path d="M1324.2 143.605H1298.85V34.8493V34.7178L1311.46 12.0986L1311.59 12.2301L1324.2 34.8493V143.605V143.605ZM1298.98 143.342H1324.07V34.8493V34.7178L1311.59 12.3616L1299.11 34.7178V34.8493V143.342H1298.98Z" fill="#FF1111" stroke="#FF1111" stroke-width="0.6" stroke-miterlimit="10" stroke-linecap="round" stroke-linejoin="round"/>
<path d="M1311.52 12.2038L1311.44 12.3071L1332.18 28.6664L1332.26 28.5631L1311.52 12.2038Z" fill="#FF1111" stroke="#FF1111" stroke-width="0.6" stroke-miterlimit="10" stroke-linecap="round" stroke-linejoin="round"/>
<path d="M1324.2 34.8491H1298.98V34.9806H1324.2V34.8491Z" fill="#FF1111" stroke="#FF1111" stroke-width="0.6" stroke-miterlimit="10" stroke-linecap="round" stroke-linejoin="round"/>
<path d="M1321.84 38.1372H1300.82V57.7317H1321.84V38.1372Z" fill="#FF1111" stroke="#FF1111" stroke-width="0.6" stroke-miterlimit="10" stroke-linecap="round" stroke-linejoin="round"/>
<path d="M1302.92 57.7314H1302.79V143.474H1302.92V57.7314Z" fill="#FF1111" stroke="#FF1111" stroke-width="0.6" stroke-miterlimit="10" stroke-linecap="round" stroke-linejoin="round"/>
<path d="M1307.12 57.7314H1306.99V143.474H1307.12V57.7314Z" fill="#FF1111" stroke="#FF1111" stroke-width="0.6" stroke-miterlimit="10" stroke-linecap="round" stroke-linejoin="round"/>
<path d="M1311.33 57.7314H1311.2V143.474H1311.33V57.7314Z" fill="#FF1111" stroke="#FF1111" stroke-width="0.6" stroke-miterlimit="10" stroke-linecap="round" stroke-linejoin="round"/>
<path d="M1315.66 57.7314H1315.53V143.474H1315.66V57.7314Z" fill="#FF1111" stroke="#FF1111" stroke-width="0.6" stroke-miterlimit="10" stroke-linecap="round" stroke-linejoin="round"/>
<path d="M1319.86 57.7314H1319.73V143.474H1319.86V57.7314Z" fill="#FF1111" stroke="#FF1111" stroke-width="0.6" stroke-miterlimit="10" stroke-linecap="round" stroke-linejoin="round"/>
<path d="M1291.89 17.0957L1283.88 23.145V131.77L1291.89 125.589V17.0957Z" fill="#FF1111" stroke="#FF1111" stroke-width="0.6" stroke-miterlimit="10" stroke-linecap="round" stroke-linejoin="round"/>
<path d="M1283.74 131.77H1258.39V23.0137V22.8822L1271.13 0.394531V0.526038L1283.74 23.1452V131.77ZM1258.52 131.638H1283.61V23.1452V23.0137L1271.13 0.789052L1258.66 23.1452V23.2767V131.638H1258.52Z" fill="#FF1111" stroke="#FF1111" stroke-width="0.6" stroke-miterlimit="10" stroke-linecap="round" stroke-linejoin="round"/>
<path d="M1271.12 0.535373L1271.04 0.638672L1291.78 16.998L1291.86 16.8947L1271.12 0.535373Z" fill="#FF1111" stroke="#FF1111" stroke-width="0.6" stroke-miterlimit="10" stroke-linecap="round" stroke-linejoin="round"/>
<path d="M1283.88 23.145H1258.66V23.2765H1283.88V23.145Z" fill="#FF1111" stroke="#FF1111" stroke-width="0.6" stroke-miterlimit="10" stroke-linecap="round" stroke-linejoin="round"/>
<path d="M1281.38 26.4331H1260.36V46.0276H1281.38V26.4331Z" fill="#FF1111" stroke="#FF1111" stroke-width="0.6" stroke-miterlimit="10" stroke-linecap="round" stroke-linejoin="round"/>
<path d="M1262.6 45.896H1262.46V131.638H1262.6V45.896Z" fill="#FF1111" stroke="#FF1111" stroke-width="0.6" stroke-miterlimit="10" stroke-linecap="round" stroke-linejoin="round"/>
<path d="M1266.67 45.896H1266.54V131.638H1266.67V45.896Z" fill="#FF1111" stroke="#FF1111" stroke-width="0.6" stroke-miterlimit="10" stroke-linecap="round" stroke-linejoin="round"/>
<path d="M1270.87 45.896H1270.74V131.638H1270.87V45.896Z" fill="#FF1111" stroke="#FF1111" stroke-width="0.6" stroke-miterlimit="10" stroke-linecap="round" stroke-linejoin="round"/>
<path d="M1275.34 45.896H1275.21V131.638H1275.34V45.896Z" fill="#FF1111" stroke="#FF1111" stroke-width="0.6" stroke-miterlimit="10" stroke-linecap="round" stroke-linejoin="round"/>
<path d="M1279.54 45.896H1279.41V131.638H1279.54V45.896Z" fill="#FF1111" stroke="#FF1111" stroke-width="0.6" stroke-miterlimit="10" stroke-linecap="round" stroke-linejoin="round"/>
<g clip-path="url(#clip0_0_1)">
<path d="M380.698 491.473H359.802V462.243C359.67 456.187 357.962 451.183 354.808 447.892C351.917 444.863 347.843 443.283 343.243 443.283C338.512 443.283 334.569 444.863 331.547 447.892C328.392 451.183 326.553 456.187 326.421 462.243V491.473H305.525V419.847H380.698V491.473ZM359.802 491.473H380.566V419.978H305.525V491.473H326.29V462.243C326.421 456.187 328.13 451.183 331.415 447.892C334.306 444.863 338.38 443.152 343.111 443.152C347.843 443.152 351.785 444.732 354.676 447.892C357.831 451.183 359.539 456.187 359.67 462.243V491.473H359.802Z" stroke="#FF1111" stroke-width="0.6" stroke-miterlimit="10" stroke-linejoin="round"/>
<path d="M363.088 459.61C363.088 460.269 363.088 460.927 363.088 461.585C363.088 463.955 363.088 466.457 363.088 468.827C363.088 474.884 363.088 480.94 363.088 486.997C363.088 487.26 363.088 491.605 363.088 491.605H359.671V463.034V462.244C359.671 461.322 359.539 460.4 359.539 459.479C358.356 448.419 351.523 443.152 343.112 443.152C334.701 443.152 327.736 448.419 326.553 459.479C326.421 460.4 326.421 461.322 326.421 462.244V463.034V491.605H322.873C322.873 490.289 322.873 488.84 322.873 487.524C322.873 484.364 322.873 481.204 322.873 478.044C322.873 474.62 322.873 471.065 322.873 467.642C322.873 466.325 322.873 465.009 322.873 463.824C322.873 461.19 322.873 458.557 323.53 456.055C324.056 454.08 324.713 452.105 325.633 450.262C327.341 447.102 329.838 444.337 332.992 442.625C336.015 440.914 339.563 440.124 343.112 440.124C350.34 440.124 356.911 443.547 360.328 449.999C362.036 452.895 362.825 456.187 363.088 459.61Z" fill="#FF1111"/>
<path d="M380.566 491.605V419.979L391.737 413.527V485.154L380.566 491.605ZM380.566 419.979V491.474L391.606 485.022V413.659L380.566 419.979Z" stroke="#FF1111" stroke-width="0.6" stroke-miterlimit="10" stroke-linejoin="round"/>
<path d="M380.566 419.978L305.525 419.847L316.17 413.395L391.605 413.527L380.566 419.978Z" fill="#FF1111" stroke="#FF1111" stroke-width="0.6" stroke-miterlimit="10" stroke-linejoin="round"/>
<path d="M375.073 420.001L352.182 445.77L352.28 445.857L375.171 420.088L375.073 420.001Z" stroke="#FF1111" stroke-width="0.6" stroke-miterlimit="10"/>
<path d="M380.508 429.492L355.877 449.232L355.96 449.335L380.59 429.595L380.508 429.492Z" stroke="#FF1111" stroke-width="0.6" stroke-miterlimit="10"/>
<path d="M380.539 440.536L358.202 453.388L358.267 453.502L380.605 440.65L380.539 440.536Z" stroke="#FF1111" stroke-width="0.6" stroke-miterlimit="10"/>
<path d="M380.506 449.084L359.426 458.296L359.478 458.417L380.559 449.205L380.506 449.084Z" stroke="#FF1111" stroke-width="0.6" stroke-miterlimit="10"/>
<path d="M380.449 457.291L359.669 463.022L359.704 463.149L380.483 457.418L380.449 457.291Z" stroke="#FF1111" stroke-width="0.6" stroke-miterlimit="10"/>
<path d="M380.518 463.642L359.833 467.426L359.857 467.555L380.542 463.772L380.518 463.642Z" stroke="#FF1111" stroke-width="0.6" stroke-miterlimit="10"/>
<path d="M380.528 470.755L359.699 472.433L359.71 472.564L380.539 470.886L380.528 470.755Z" stroke="#FF1111" stroke-width="0.6" stroke-miterlimit="10"/>
<path d="M343.112 419.847H342.98V443.283H343.112V419.847Z" stroke="#FF1111" stroke-width="0.6" stroke-miterlimit="10"/>
<path d="M357.288 419.871L347.63 443.511L347.752 443.561L357.41 419.921L357.288 419.871Z" stroke="#FF1111" stroke-width="0.6" stroke-miterlimit="10"/>
<path d="M380.566 481.467H359.67V481.598H380.566V481.467Z" stroke="#FF1111" stroke-width="0.6" stroke-miterlimit="10"/>
<path d="M380.435 486.47H359.67V486.602H380.435V486.47Z" stroke="#FF1111" stroke-width="0.6" stroke-miterlimit="10"/>
<path d="M380.435 476.99H359.67V477.122H380.435V476.99Z" stroke="#FF1111" stroke-width="0.6" stroke-miterlimit="10"/>
<path d="M311.143 419.942L311.045 420.03L333.956 445.782L334.054 445.694L311.143 419.942Z" stroke="#FF1111" stroke-width="0.6" stroke-miterlimit="10"/>
<path d="M305.627 429.392L305.545 429.495L330.159 449.251L330.242 449.148L305.627 429.392Z" stroke="#FF1111" stroke-width="0.6" stroke-miterlimit="10"/>
<path d="M305.606 440.527L305.54 440.642L327.87 453.506L327.935 453.392L305.606 440.527Z" stroke="#FF1111" stroke-width="0.6" stroke-miterlimit="10"/>
<path d="M305.525 449.077L326.684 458.293" stroke="#FF1111" stroke-width="0.6" stroke-miterlimit="10"/>
<path d="M325.633 462.639L305.657 457.24L325.633 462.507V462.639Z" stroke="#FF1111" stroke-width="0.6" stroke-miterlimit="10"/>
<path d="M305.526 463.533L305.502 463.662L326.323 467.442L326.346 467.312L305.526 463.533Z" stroke="#FF1111" stroke-width="0.6" stroke-miterlimit="10"/>
<path d="M305.532 470.744L305.521 470.875L326.481 472.555L326.492 472.423L305.532 470.744Z" stroke="#FF1111" stroke-width="0.6" stroke-miterlimit="10"/>
<path d="M328.958 419.95L328.836 420L338.499 443.637L338.62 443.587L328.958 419.95Z" stroke="#FF1111" stroke-width="0.6" stroke-miterlimit="10"/>
<path d="M326.553 481.467H305.525V481.598H326.553V481.467Z" stroke="#FF1111" stroke-width="0.6" stroke-miterlimit="10"/>
<path d="M326.553 486.47H305.525V486.602H326.553V486.47Z" stroke="#FF1111" stroke-width="0.6" stroke-miterlimit="10"/>
<path d="M326.553 476.99H305.525V477.122H326.553V476.99Z" stroke="#FF1111" stroke-width="0.6" stroke-miterlimit="10"/>
<path d="M326.553 491.473L337.592 485.022C337.592 485.022 337.592 458.688 337.592 455.792C337.592 452.895 338.644 446.97 341.272 443.415" stroke="#FF1111" stroke-width="0.6" stroke-miterlimit="10" stroke-linejoin="round"/>
</g>
<circle cx="135.5" cy="303.5" r="20.5" fill="#FFD400"/>
<circle cx="267.5" cy="599.5" r="20.5" fill="#FFD400"/>
<circle cx="1238.5" cy="287.5" r="20.5" fill="#FFD400"/>
<circle cx="1392.5" cy="201.5" r="20.5" fill="#FFD400"/>
<circle cx="1159.5" cy="78.5" r="20.5" fill="#FFD400"/>
<circle cx="104.5" cy="512.5" r="20.5" fill="#FFD400"/>
<defs>
<clipPath id="clip0_0_1">
<rect width="87" height="79" fill="white" transform="translate(305 413)"/>
</clipPath>
</defs>
</svg>

