<svg width="49" height="49" viewBox="0 0 49 49" fill="none" xmlns="http://www.w3.org/2000/svg">
<path d="M28.4716 24.2133C28.4716 26.2679 26.8013 27.9422 24.7426 27.9422C22.69 27.9422 21.0156 26.2679 21.0156 24.2133C21.0156 22.1586 22.69 20.4863 24.7426 20.4863C26.7993 20.4863 28.4716 22.1586 28.4716 24.2133ZM31.4077 19.0937C30.5665 19.0937 29.8803 18.4075 29.8803 17.5643C29.8803 16.7231 30.5665 16.0369 31.4077 16.0369C32.2509 16.0369 32.9371 16.7231 32.9371 17.5643C32.9371 18.4075 32.2509 19.0937 31.4077 19.0937ZM24.7426 30.669C21.1847 30.669 18.2868 27.7752 18.2868 24.2133C18.2868 20.6533 21.1847 17.7575 24.7426 17.7575C28.3046 17.7575 31.2004 20.6533 31.2004 24.2133C31.2004 27.7732 28.3046 30.669 24.7426 30.669ZM30.9549 14.4068H18.5343C16.5501 14.4068 14.9382 16.0208 14.9382 18.003V30.4235C14.9382 32.4058 16.5501 34.0197 18.5343 34.0197H30.9549C32.9371 34.0197 34.5511 32.4078 34.5511 30.4235V18.003C34.5511 16.0208 32.9391 14.4068 30.9549 14.4068ZM37.2779 30.4235C37.2779 33.911 34.4424 36.7485 30.9549 36.7485H18.5343C15.0468 36.7485 12.2094 33.911 12.2094 30.4235V18.003C12.2094 14.5155 15.0468 11.678 18.5343 11.678H30.9549C34.4424 11.678 37.2779 14.5155 37.2779 18.003V30.4235ZM24.7426 0C11.4084 0 0.59375 10.8127 0.59375 24.1489C0.59375 37.4851 11.4084 48.2977 24.7426 48.2977C38.0808 48.2977 48.8915 37.4851 48.8915 24.1489C48.8915 10.8127 38.0808 0 24.7426 0Z" fill="#F9F9F9"/>
<path d="M28.4716 24.2133C28.4716 26.2679 26.8013 27.9422 24.7426 27.9422C22.69 27.9422 21.0156 26.2679 21.0156 24.2133C21.0156 22.1586 22.69 20.4863 24.7426 20.4863C26.7993 20.4863 28.4716 22.1586 28.4716 24.2133ZM31.4077 19.0937C30.5665 19.0937 29.8803 18.4075 29.8803 17.5643C29.8803 16.7231 30.5665 16.0369 31.4077 16.0369C32.2509 16.0369 32.9371 16.7231 32.9371 17.5643C32.9371 18.4075 32.2509 19.0937 31.4077 19.0937ZM24.7426 30.669C21.1847 30.669 18.2868 27.7752 18.2868 24.2133C18.2868 20.6533 21.1847 17.7575 24.7426 17.7575C28.3046 17.7575 31.2004 20.6533 31.2004 24.2133C31.2004 27.7732 28.3046 30.669 24.7426 30.669ZM30.9549 14.4068H18.5343C16.5501 14.4068 14.9382 16.0208 14.9382 18.003V30.4235C14.9382 32.4058 16.5501 34.0197 18.5343 34.0197H30.9549C32.9371 34.0197 34.5511 32.4078 34.5511 30.4235V18.003C34.5511 16.0208 32.9391 14.4068 30.9549 14.4068ZM37.2779 30.4235C37.2779 33.911 34.4424 36.7485 30.9549 36.7485H18.5343C15.0468 36.7485 12.2094 33.911 12.2094 30.4235V18.003C12.2094 14.5155 15.0468 11.678 18.5343 11.678H30.9549C34.4424 11.678 37.2779 14.5155 37.2779 18.003V30.4235ZM24.7426 0C11.4084 0 0.59375 10.8127 0.59375 24.1489C0.59375 37.4851 11.4084 48.2977 24.7426 48.2977C38.0808 48.2977 48.8915 37.4851 48.8915 24.1489C48.8915 10.8127 38.0808 0 24.7426 0Z" fill="black"/>
</svg>
