<svg width="215" height="171" viewBox="0 0 215 171" fill="none" xmlns="http://www.w3.org/2000/svg">
<path d="M78.3374 25.9164L276 0L264.359 153.561L0 171L78.3374 25.9164Z" fill="#44CBB4"/>
<ellipse cx="165" cy="16.5" rx="10" ry="9.5" fill="#FFD400"/>
<circle cx="88" cy="140" r="10" fill="#FFD400"/>
<ellipse cx="196" cy="153.5" rx="10" ry="9.5" fill="#FFD400"/>
<g clip-path="url(#clip0_382_7)">
<path d="M71.8688 112.849H49.5737V81.2093C49.5737 71.4536 51.1475 54.7109 53.7705 38.3636C55.7377 25.3122 58.6229 11.3379 60.5901 11.3379C62.295 11.3379 65.3114 25.9713 67.4098 38.3636C70.6885 58.534 71.8688 73.6948 71.8688 81.2093V112.849Z" stroke="#FF1111" stroke-width="0.6" stroke-miterlimit="10" stroke-linejoin="round"/>
<path d="M60.7214 11.3376C63.8359 11.3376 66.3607 8.79961 66.3607 5.66881C66.3607 2.53801 63.8359 0 60.7214 0C57.6069 0 55.082 2.53801 55.082 5.66881C55.082 8.79961 57.6069 11.3376 60.7214 11.3376Z" fill="#FF1111"/>
<path d="M59.2784 53.5242H56.7866V45.6143H59.2784V53.5242ZM56.9178 53.3924H59.1473V45.7461H56.9178V53.3924Z" fill="#FF1111" stroke="#FF1111" stroke-width="0.5" stroke-miterlimit="10" stroke-linejoin="round"/>
<path d="M64.131 53.5242H61.6392V45.6143H64.131V53.5242ZM61.9015 53.3924H64.131V45.7461H61.9015V53.3924Z" fill="#FF1111" stroke="#FF1111" stroke-width="0.5" stroke-miterlimit="10" stroke-linejoin="round"/>
<path d="M63.9996 43.5052H61.5078V35.5952H63.9996V43.5052ZM61.639 43.3733H63.8685V35.727H61.639V43.3733Z" fill="#FF1111" stroke="#FF1111" stroke-width="0.5" stroke-miterlimit="10" stroke-linejoin="round"/>
<path d="M61.9015 33.6175H59.4097V25.7075H61.9015V33.6175ZM59.5408 33.4857H61.7703V25.8394H59.5408V33.4857Z" fill="#FF1111" stroke="#FF1111" stroke-width="0.5" stroke-miterlimit="10" stroke-linejoin="round"/>
<path d="M59.2784 43.5052H56.7866V35.5952H59.2784V43.5052ZM56.9178 43.3733H59.1473V35.727H56.9178V43.3733Z" fill="#FF1111" stroke="#FF1111" stroke-width="0.5" stroke-miterlimit="10" stroke-linejoin="round"/>
<path d="M59.5406 73.431H57.0488V65.521H59.5406V73.431ZM57.18 73.2991H59.4095V65.6528H57.18V73.2991Z" fill="#FF1111" stroke="#FF1111" stroke-width="0.5" stroke-miterlimit="10" stroke-linejoin="round"/>
<path d="M64.3932 73.431H61.9014V65.521H64.3932V73.431ZM62.0325 73.2991H64.262V65.6528H62.0325V73.2991Z" fill="#FF1111" stroke="#FF1111" stroke-width="0.5" stroke-miterlimit="10" stroke-linejoin="round"/>
<path d="M68.8522 73.431H66.3604V65.521H68.8522V73.431ZM66.4915 73.2991H68.721V65.6528H66.4915V73.2991Z" fill="#FF1111" stroke="#FF1111" stroke-width="0.5" stroke-miterlimit="10" stroke-linejoin="round"/>
<path d="M54.9503 73.431H52.4585V65.521H54.9503V73.431ZM52.5896 73.2991H54.8192V65.6528H52.5896V73.2991Z" fill="#FF1111" stroke="#FF1111" stroke-width="0.5" stroke-miterlimit="10" stroke-linejoin="round"/>
<path d="M54.9503 83.3187H52.4585V75.4087H54.9503V83.3187ZM52.5896 83.3187H54.8192V75.6724H52.5896V83.3187Z" fill="#FF1111" stroke="#FF1111" stroke-width="0.5" stroke-miterlimit="10" stroke-linejoin="round"/>
<path d="M68.8522 83.3187H66.3604V75.4087H68.8522V83.3187ZM66.4915 83.3187H68.721V75.6724H66.4915V83.3187Z" fill="#FF1111" stroke="#FF1111" stroke-width="0.5" stroke-miterlimit="10" stroke-linejoin="round"/>
<path d="M68.8522 93.3377H66.3604V85.4277H68.8522V93.3377ZM66.4915 93.2059H68.721V85.5596H66.4915V93.2059Z" fill="#FF1111" stroke="#FF1111" stroke-width="0.5" stroke-miterlimit="10" stroke-linejoin="round"/>
<path d="M54.9503 93.3377H52.4585V85.4277H54.9503V93.3377ZM52.5896 93.2059H54.8192V85.5596H52.5896V93.2059Z" fill="#FF1111" stroke="#FF1111" stroke-width="0.5" stroke-miterlimit="10" stroke-linejoin="round"/>
<path d="M64.131 63.4119H61.6392V55.502H64.131V63.4119ZM61.9015 63.4119H64.131V55.7656H61.9015V63.4119Z" fill="#FF1111" stroke="#FF1111" stroke-width="0.5" stroke-miterlimit="10" stroke-linejoin="round"/>
<path d="M59.5406 63.4119H57.0488V55.502H59.5406V63.4119ZM57.18 63.4119H59.4095V55.7656H57.18V63.4119Z" fill="#FF1111" stroke="#FF1111" stroke-width="0.5" stroke-miterlimit="10" stroke-linejoin="round"/>
<path d="M59.5406 93.3377H57.0488V85.4277H59.5406V93.3377ZM57.18 93.2059H59.4095V85.5596H57.18V93.2059Z" fill="#FF1111" stroke="#FF1111" stroke-width="0.5" stroke-miterlimit="10" stroke-linejoin="round"/>
<path d="M64.3932 93.3377H61.9014V85.4277H64.3932V93.3377ZM62.0325 93.2059H64.262V85.5596H62.0325V93.2059Z" fill="#FF1111" stroke="#FF1111" stroke-width="0.5" stroke-miterlimit="10" stroke-linejoin="round"/>
<path d="M68.7208 103.225H66.229V95.3154H68.7208V103.225ZM66.3601 103.225H68.5897V95.5791H66.3601V103.225Z" fill="#FF1111" stroke="#FF1111" stroke-width="0.5" stroke-miterlimit="10" stroke-linejoin="round"/>
<path d="M54.8194 103.225H52.3276V95.3154H54.8194V103.225ZM52.4588 103.225H54.6883V95.5791H52.4588V103.225Z" fill="#FF1111" stroke="#FF1111" stroke-width="0.5" stroke-miterlimit="10" stroke-linejoin="round"/>
<path d="M59.2784 103.225H56.7866V95.3154H59.2784V103.225ZM56.9178 103.225H59.1473V95.5791H56.9178V103.225Z" fill="#FF1111" stroke="#FF1111" stroke-width="0.5" stroke-miterlimit="10" stroke-linejoin="round"/>
<path d="M64.131 103.225H61.6392V95.3154H64.131V103.225ZM61.9015 103.225H64.131V95.5791H61.9015V103.225Z" fill="#FF1111" stroke="#FF1111" stroke-width="0.5" stroke-miterlimit="10" stroke-linejoin="round"/>
<path d="M64.131 83.3187H61.6392V75.4087H64.131V83.3187ZM61.9015 83.3187H64.131V75.6724H61.9015V83.3187Z" fill="#FF1111" stroke="#FF1111" stroke-width="0.5" stroke-miterlimit="10" stroke-linejoin="round"/>
<path d="M59.5406 83.3187H57.0488V75.4087H59.5406V83.3187ZM57.18 83.3187H59.4095V75.6724H57.18V83.3187Z" fill="#FF1111" stroke="#FF1111" stroke-width="0.5" stroke-miterlimit="10" stroke-linejoin="round"/>
<path d="M94.2951 112.849H72V81.2093C72 71.4536 73.5738 54.7109 76.1967 38.3636C78.1639 25.3122 81.0492 11.3379 83.0164 11.3379C84.7213 11.3379 87.7377 25.9713 89.8361 38.3636C93.1148 58.534 94.2951 73.6948 94.2951 81.2093V112.849V112.849Z" stroke="#FF1111" stroke-width="0.6" stroke-miterlimit="10" stroke-linejoin="round"/>
<path d="M83.1476 11.3376C86.2622 11.3376 88.787 8.79961 88.787 5.66881C88.787 2.53801 86.2622 0 83.1476 0C80.0331 0 77.5083 2.53801 77.5083 5.66881C77.5083 8.79961 80.0331 11.3376 83.1476 11.3376Z" fill="#FF1111"/>
<path d="M81.9669 53.5242H79.4751V45.6143H81.9669V53.5242ZM79.6062 53.3924H81.8358V45.7461H79.6062V53.3924Z" fill="#FF1111" stroke="#FF1111" stroke-width="0.5" stroke-miterlimit="10" stroke-linejoin="round"/>
<path d="M86.9508 53.5242H84.459V45.6143H86.9508V53.5242ZM84.5901 53.3924H86.8196V45.7461H84.5901V53.3924Z" fill="#FF1111" stroke="#FF1111" stroke-width="0.5" stroke-miterlimit="10" stroke-linejoin="round"/>
<path d="M86.6881 43.5052H84.1963V35.5952H86.6881V43.5052ZM84.3274 43.3733H86.5569V35.727H84.3274V43.3733Z" fill="#FF1111" stroke="#FF1111" stroke-width="0.5" stroke-miterlimit="10" stroke-linejoin="round"/>
<path d="M84.59 33.6175H82.0981V25.7075H84.59V33.6175ZM82.2293 33.4857H84.4588V25.8394H82.2293V33.4857Z" fill="#FF1111" stroke="#FF1111" stroke-width="0.5" stroke-miterlimit="10" stroke-linejoin="round"/>
<path d="M81.9669 43.5052H79.4751V35.5952H81.9669V43.5052ZM79.6062 43.3733H81.8358V35.727H79.6062V43.3733Z" fill="#FF1111" stroke="#FF1111" stroke-width="0.5" stroke-miterlimit="10" stroke-linejoin="round"/>
<path d="M82.2291 73.431H79.7373V65.521H82.2291V73.431ZM79.8685 73.2991H82.098V65.6528H79.8685V73.2991Z" fill="#FF1111" stroke="#FF1111" stroke-width="0.5" stroke-miterlimit="10" stroke-linejoin="round"/>
<path d="M87.0816 73.431H84.5898V65.521H87.0816V73.431ZM84.721 73.2991H86.9505V65.6528H84.721V73.2991Z" fill="#FF1111" stroke="#FF1111" stroke-width="0.5" stroke-miterlimit="10" stroke-linejoin="round"/>
<path d="M91.5406 73.431H89.0488V65.521H91.5406V73.431ZM89.18 73.2991H91.4095V65.6528H89.18V73.2991Z" fill="#FF1111" stroke="#FF1111" stroke-width="0.5" stroke-miterlimit="10" stroke-linejoin="round"/>
<path d="M77.6388 73.431H75.147V65.521H77.6388V73.431ZM75.2781 73.2991H77.5076V65.6528H75.2781V73.2991Z" fill="#FF1111" stroke="#FF1111" stroke-width="0.5" stroke-miterlimit="10" stroke-linejoin="round"/>
<path d="M77.6388 83.3187H75.147V75.4087H77.6388V83.3187ZM75.2781 83.3187H77.5076V75.6724H75.2781V83.3187Z" fill="#FF1111" stroke="#FF1111" stroke-width="0.5" stroke-miterlimit="10" stroke-linejoin="round"/>
<path d="M91.5406 83.3187H89.0488V75.4087H91.5406V83.3187ZM89.18 83.3187H91.4095V75.6724H89.18V83.3187Z" fill="#FF1111" stroke="#FF1111" stroke-width="0.5" stroke-miterlimit="10" stroke-linejoin="round"/>
<path d="M91.5406 93.3377H89.0488V85.4277H91.5406V93.3377ZM89.18 93.2059H91.4095V85.5596H89.18V93.2059Z" fill="#FF1111" stroke="#FF1111" stroke-width="0.5" stroke-miterlimit="10" stroke-linejoin="round"/>
<path d="M77.6388 93.3377H75.147V85.4277H77.6388V93.3377ZM75.2781 93.2059H77.5076V85.5596H75.2781V93.2059Z" fill="#FF1111" stroke="#FF1111" stroke-width="0.5" stroke-miterlimit="10" stroke-linejoin="round"/>
<path d="M86.9508 63.4119H84.459V55.502H86.9508V63.4119ZM84.5901 63.4119H86.8196V55.7656H84.5901V63.4119Z" fill="#FF1111" stroke="#FF1111" stroke-width="0.5" stroke-miterlimit="10" stroke-linejoin="round"/>
<path d="M82.2291 63.4119H79.7373V55.502H82.2291V63.4119ZM79.8685 63.4119H82.098V55.7656H79.8685V63.4119Z" fill="#FF1111" stroke="#FF1111" stroke-width="0.5" stroke-miterlimit="10" stroke-linejoin="round"/>
<path d="M82.2291 93.3377H79.7373V85.4277H82.2291V93.3377ZM79.8685 93.2059H82.098V85.5596H79.8685V93.2059Z" fill="#FF1111" stroke="#FF1111" stroke-width="0.5" stroke-miterlimit="10" stroke-linejoin="round"/>
<path d="M87.0816 93.3377H84.5898V85.4277H87.0816V93.3377ZM84.721 93.2059H86.9505V85.5596H84.721V93.2059Z" fill="#FF1111" stroke="#FF1111" stroke-width="0.5" stroke-miterlimit="10" stroke-linejoin="round"/>
<path d="M91.4093 103.225H88.9175V95.3154H91.4093V103.225ZM89.0486 103.225H91.2781V95.5791H89.0486V103.225Z" fill="#FF1111" stroke="#FF1111" stroke-width="0.5" stroke-miterlimit="10" stroke-linejoin="round"/>
<path d="M77.5079 103.225H75.0161V95.3154H77.5079V103.225ZM75.1473 103.225H77.3768V95.5791H75.1473V103.225Z" fill="#FF1111" stroke="#FF1111" stroke-width="0.5" stroke-miterlimit="10" stroke-linejoin="round"/>
<path d="M81.9669 103.225H79.4751V95.3154H81.9669V103.225ZM79.6062 103.225H81.8358V95.5791H79.6062V103.225Z" fill="#FF1111" stroke="#FF1111" stroke-width="0.5" stroke-miterlimit="10" stroke-linejoin="round"/>
<path d="M86.9508 103.225H84.459V95.3154H86.9508V103.225ZM84.5901 103.225H86.8196V95.5791H84.5901V103.225Z" fill="#FF1111" stroke="#FF1111" stroke-width="0.5" stroke-miterlimit="10" stroke-linejoin="round"/>
<path d="M86.9508 83.3187H84.459V75.4087H86.9508V83.3187ZM84.5901 83.3187H86.8196V75.6724H84.5901V83.3187Z" fill="#FF1111" stroke="#FF1111" stroke-width="0.5" stroke-miterlimit="10" stroke-linejoin="round"/>
<path d="M82.2291 83.3187H79.7373V75.4087H82.2291V83.3187ZM79.8685 83.3187H82.098V75.6724H79.8685V83.3187Z" fill="#FF1111" stroke="#FF1111" stroke-width="0.5" stroke-miterlimit="10" stroke-linejoin="round"/>
<path d="M94.6886 112.849L113.443 121.155M113.443 121.155L94.4263 112.849V87.6693C94.4263 79.8911 95.7377 68.4217 97.8361 57.8751C100.066 46.933 102.295 40.4731 104 40.4731C105.705 40.4731 108.197 51.5471 109.902 61.9619C112 74.8815 113.443 88.1966 113.443 95.9748V121.155Z" stroke="#FF1111" stroke-width="0.6" stroke-miterlimit="10" stroke-linejoin="round"/>
<path d="M119.738 114.959L113.443 121.287L113.311 121.155L119.738 114.959ZM119.738 114.959L119.607 89.7786C119.607 82.5278 117.115 71.0584 112.918 58.9297C109.377 48.6468 105.443 40.605 104 40.605V40.4731" stroke="#FF1111" stroke-width="0.6" stroke-miterlimit="10" stroke-linejoin="round"/>
<path d="M104.656 40.4729C107.77 40.4729 110.295 37.9349 110.295 34.8041C110.295 31.6733 107.77 29.1353 104.656 29.1353C101.541 29.1353 99.0166 31.6733 99.0166 34.8041C99.0166 37.9349 101.541 40.4729 104.656 40.4729Z" fill="#FF1111"/>
<path d="M98.6231 104.807L96.3936 103.753V95.8428L98.6231 96.8974V104.807ZM96.5247 103.621L98.4919 104.544V96.8974L96.5247 95.9746V103.621Z" fill="#FF1111" stroke="#FF1111" stroke-width="0.45" stroke-miterlimit="10" stroke-linejoin="round"/>
<path d="M102.426 106.389L100.197 105.466V97.5562L102.426 98.6108V106.389ZM100.328 105.334L102.295 106.257V98.6108L100.328 97.688V105.334Z" fill="#FF1111" stroke="#FF1111" stroke-width="0.45" stroke-miterlimit="10" stroke-linejoin="round"/>
<path d="M106.623 108.235L104.394 107.18V99.27L106.623 100.325V108.235ZM104.525 107.18L106.492 108.103V100.457L104.525 99.5337V107.18Z" fill="#FF1111" stroke="#FF1111" stroke-width="0.45" stroke-miterlimit="10" stroke-linejoin="round"/>
<path d="M110.951 110.212L108.722 109.158V101.248L110.951 102.302V110.212ZM108.722 109.158L110.689 110.08V102.434L108.722 101.511V109.158Z" fill="#FF1111" stroke="#FF1111" stroke-width="0.45" stroke-miterlimit="10" stroke-linejoin="round"/>
<path d="M99.148 94.5242L96.9185 93.6014V85.6914L99.148 86.7461V94.5242ZM97.0496 93.4695L99.0168 94.3924V86.7461L97.0496 85.8232V93.4695Z" fill="#FF1111" stroke="#FF1111" stroke-width="0.45" stroke-miterlimit="10" stroke-linejoin="round"/>
<path d="M102.951 96.2381L100.721 95.1834V87.2734L102.951 88.3281V96.2381ZM100.721 95.1834L102.688 96.1062V88.3281L100.721 87.4053V95.1834Z" fill="#FF1111" stroke="#FF1111" stroke-width="0.45" stroke-miterlimit="10" stroke-linejoin="round"/>
<path d="M107.147 98.0838L104.918 97.0291V89.1191L107.147 90.1738V98.0838ZM105.049 97.0291L107.016 97.9519V90.3056L105.049 89.3828V97.0291Z" fill="#FF1111" stroke="#FF1111" stroke-width="0.45" stroke-miterlimit="10" stroke-linejoin="round"/>
<path d="M111.344 100.061L109.115 99.0066V91.0967L111.344 92.1513V100.061ZM109.246 98.8748L111.213 99.7976V92.1513L109.246 91.2285V98.8748Z" fill="#FF1111" stroke="#FF1111" stroke-width="0.45" stroke-miterlimit="10" stroke-linejoin="round"/>
<path d="M99.148 84.3733L96.9185 83.3187V75.4087L99.148 76.4634V84.3733ZM97.0496 83.3187L99.0168 84.2415V76.4634L97.0496 75.5405V83.3187Z" fill="#FF1111" stroke="#FF1111" stroke-width="0.45" stroke-miterlimit="10" stroke-linejoin="round"/>
<path d="M102.951 85.9554L100.721 84.9007V76.9907L102.951 78.0454V85.9554ZM100.721 84.9007L102.688 85.8235V78.1772L100.721 77.2544V84.9007Z" fill="#FF1111" stroke="#FF1111" stroke-width="0.45" stroke-miterlimit="10" stroke-linejoin="round"/>
<path d="M107.147 87.9324L104.918 86.8777V78.9678L107.147 80.0224V87.9324ZM105.049 86.8777L107.016 87.8006V80.1543L105.049 79.0996V86.8777Z" fill="#FF1111" stroke="#FF1111" stroke-width="0.45" stroke-miterlimit="10" stroke-linejoin="round"/>
<path d="M111.344 89.7781L109.115 88.7234V80.8135L111.344 81.8681V89.7781ZM109.246 88.7234L111.213 89.6463V82L109.246 81.0771V88.7234Z" fill="#FF1111" stroke="#FF1111" stroke-width="0.45" stroke-miterlimit="10" stroke-linejoin="round"/>
<path d="M103.606 74.3538L101.377 73.431V65.521L103.606 66.5757V74.3538ZM101.508 73.2991L103.475 74.222V66.5757L101.508 65.6528V73.2991Z" fill="#FF1111" stroke="#FF1111" stroke-width="0.45" stroke-miterlimit="10" stroke-linejoin="round"/>
<path d="M107.803 76.3313L105.574 75.2767V67.3667L107.803 68.4214V76.3313ZM105.705 75.2767L107.672 76.1995V68.5532L105.705 67.6304V75.2767Z" fill="#FF1111" stroke="#FF1111" stroke-width="0.45" stroke-miterlimit="10" stroke-linejoin="round"/>
<path d="M103.606 64.4666L101.377 63.4119V55.502L103.606 56.5566V64.4666ZM101.508 63.4119L103.475 64.3348V56.6885L101.508 55.7656V63.4119Z" fill="#FF1111" stroke="#FF1111" stroke-width="0.45" stroke-miterlimit="10" stroke-linejoin="round"/>
<path d="M105.705 55.2381L103.476 54.1834V46.2734L105.705 47.3281V55.2381ZM103.607 54.1834L105.574 55.1062V47.4599L103.607 46.5371V54.1834Z" fill="#FF1111" stroke="#FF1111" stroke-width="0.45" stroke-miterlimit="10" stroke-linejoin="round"/>
<path d="M107.803 66.3118L105.574 65.2571V57.3472L107.803 58.4018V66.3118ZM105.705 65.2571L107.672 66.18V58.5337L105.705 57.6108V65.2571Z" fill="#FF1111" stroke="#FF1111" stroke-width="0.45" stroke-miterlimit="10" stroke-linejoin="round"/>
<path d="M30.5571 121.155V95.9748C30.5571 88.1966 31.8686 74.8815 33.967 61.9619C35.6719 51.5471 38.1637 40.4731 39.8686 40.4731C41.5735 40.4731 43.803 46.933 46.0325 57.8751C48.1309 68.5535 49.4424 79.8911 49.4424 87.6693V112.849L30.5571 121.155Z" stroke="#FF1111" stroke-width="0.6" stroke-miterlimit="10" stroke-linejoin="round"/>
<path d="M39.8688 40.4731C38.4261 40.605 34.4917 48.6468 30.9507 58.9297C26.754 71.0584 24.2622 82.6596 24.2622 89.7786V114.827L30.5573 121.155L30.6884 121.287L24.2622 114.959" stroke="#FF1111" stroke-width="0.6" stroke-miterlimit="10" stroke-linejoin="round"/>
<path d="M39.6066 40.4729C42.7212 40.4729 45.246 37.9349 45.246 34.8041C45.246 31.6733 42.7212 29.1353 39.6066 29.1353C36.4921 29.1353 33.9673 31.6733 33.9673 34.8041C33.9673 37.9349 36.4921 40.4729 39.6066 40.4729Z" fill="#FF1111"/>
<path d="M45.5078 104.939V97.0293L47.7373 95.9746V103.885L45.5078 104.939ZM45.639 97.1611V104.807L47.6062 103.885V96.2383L45.639 97.1611Z" fill="#FF1111" stroke="#FF1111" stroke-width="0.45" stroke-miterlimit="10" stroke-linejoin="round"/>
<path d="M41.7046 106.653V98.7431L43.9341 97.6885V105.598L41.7046 106.653ZM41.8357 98.7431V106.389L43.803 105.467V97.8203L41.8357 98.7431Z" fill="#FF1111" stroke="#FF1111" stroke-width="0.45" stroke-miterlimit="10" stroke-linejoin="round"/>
<path d="M37.5078 108.498V100.588L39.7373 99.5337V107.444L37.5078 108.498ZM37.639 100.72V108.366L39.6062 107.444V99.7974L37.639 100.72Z" fill="#FF1111" stroke="#FF1111" stroke-width="0.45" stroke-miterlimit="10" stroke-linejoin="round"/>
<path d="M33.1802 110.476V102.566L35.5408 101.511V109.421L33.1802 110.476ZM33.3113 102.566V110.212L35.2785 109.289V101.643L33.3113 102.566Z" fill="#FF1111" stroke="#FF1111" stroke-width="0.45" stroke-miterlimit="10" stroke-linejoin="round"/>
<path d="M44.9834 94.7879V86.8779L47.2129 85.8232V93.7332L44.9834 94.7879ZM45.1145 86.8779V94.5242L47.0818 93.6014V85.9551L45.1145 86.8779Z" fill="#FF1111" stroke="#FF1111" stroke-width="0.45" stroke-miterlimit="10" stroke-linejoin="round"/>
<path d="M41.311 96.5017V88.5918L43.5405 87.5371V95.4471L41.311 96.5017ZM41.311 88.5918V96.2381L43.2782 95.3152V87.6689L41.311 88.5918Z" fill="#FF1111" stroke="#FF1111" stroke-width="0.45" stroke-miterlimit="10" stroke-linejoin="round"/>
<path d="M36.9834 98.3474V90.4375L39.2129 89.3828V97.2928L36.9834 98.3474ZM37.1145 90.4375V98.0838L39.0818 97.1609V89.5146L37.1145 90.4375Z" fill="#FF1111" stroke="#FF1111" stroke-width="0.45" stroke-miterlimit="10" stroke-linejoin="round"/>
<path d="M32.7866 100.193V92.2832L35.0161 91.2285V99.1385L32.7866 100.193ZM32.9178 92.415V100.061L34.885 99.1385V91.4922L32.9178 92.415Z" fill="#FF1111" stroke="#FF1111" stroke-width="0.45" stroke-miterlimit="10" stroke-linejoin="round"/>
<path d="M44.9834 84.637V76.727L47.2129 75.6724V83.5823L44.9834 84.637ZM45.1145 76.727V84.3733L47.0818 83.4505V75.8042L45.1145 76.727Z" fill="#FF1111" stroke="#FF1111" stroke-width="0.45" stroke-miterlimit="10" stroke-linejoin="round"/>
<path d="M41.311 86.219V78.3091L43.5405 77.2544V85.1644L41.311 86.219ZM41.311 78.4409V86.0872L43.2782 85.1644V77.5181L41.311 78.4409Z" fill="#FF1111" stroke="#FF1111" stroke-width="0.45" stroke-miterlimit="10" stroke-linejoin="round"/>
<path d="M36.9834 88.1961V80.2861L39.2129 79.2314V87.1414L36.9834 88.1961ZM37.1145 80.2861V87.9324L39.0818 87.0096V79.3633L37.1145 80.2861Z" fill="#FF1111" stroke="#FF1111" stroke-width="0.45" stroke-miterlimit="10" stroke-linejoin="round"/>
<path d="M32.7866 90.0418V82.1318L35.0161 81.0771V88.9871L32.7866 90.0418ZM32.9178 82.1318V89.7781L34.885 88.8553V81.209L32.9178 82.1318Z" fill="#FF1111" stroke="#FF1111" stroke-width="0.45" stroke-miterlimit="10" stroke-linejoin="round"/>
<path d="M40.5244 74.6175V66.7075L42.7539 65.6528V73.5628L40.5244 74.6175ZM40.6556 66.7075V74.3538L42.6228 73.431V65.9165L40.6556 66.7075Z" fill="#FF1111" stroke="#FF1111" stroke-width="0.45" stroke-miterlimit="10" stroke-linejoin="round"/>
<path d="M36.3276 76.595V68.685L38.5571 67.6304V75.5403L36.3276 76.595ZM36.4588 68.685V76.3313L38.426 75.4085V67.7622L36.4588 68.685Z" fill="#FF1111" stroke="#FF1111" stroke-width="0.45" stroke-miterlimit="10" stroke-linejoin="round"/>
<path d="M40.5244 64.7303V56.8203L42.7539 55.7656V63.6756L40.5244 64.7303ZM40.6556 56.8203V64.4666L42.6228 63.5438V55.8975L40.6556 56.8203Z" fill="#FF1111" stroke="#FF1111" stroke-width="0.45" stroke-miterlimit="10" stroke-linejoin="round"/>
<path d="M38.4258 55.5017V47.5918L40.6553 46.5371V54.4471L38.4258 55.5017ZM38.5569 47.5918V55.2381L40.5241 54.3152V46.6689L38.5569 47.5918Z" fill="#FF1111" stroke="#FF1111" stroke-width="0.45" stroke-miterlimit="10" stroke-linejoin="round"/>
<path d="M36.3276 66.5755V58.6655L38.5571 57.6108V65.5208L36.3276 66.5755ZM36.4588 58.6655V66.3118L38.426 65.389V57.7427L36.4588 58.6655Z" fill="#FF1111" stroke="#FF1111" stroke-width="0.45" stroke-miterlimit="10" stroke-linejoin="round"/>
<path d="M112.656 122.604H31.3442L49.7049 114.694H94.2951L112.656 122.604Z" fill="#FF1111" stroke="#FF1111" stroke-width="0.6" stroke-miterlimit="10" stroke-linejoin="round"/>
</g>
<defs>
<clipPath id="clip0_382_7">
<rect width="96" height="123" fill="white" transform="translate(24)"/>
</clipPath>
</defs>
</svg>
