<svg width="215" height="164" viewBox="0 0 215 164" fill="none" xmlns="http://www.w3.org/2000/svg">
<path d="M139.737 26L232 70.7416V154H125.405L0 50.7052L139.737 26Z" fill="#44CBB4"/>
<circle cx="145" cy="154" r="10" fill="#FFD400"/>
<circle cx="190" cy="103" r="10" fill="#FFD400"/>
<circle cx="28" cy="48" r="10" fill="#FFD400"/>
<path d="M139.211 28.7998L131.199 34.8491V143.474L139.211 137.424V28.7998Z" fill="#FF1111" stroke="#FF1111" stroke-width="0.6" stroke-miterlimit="10" stroke-linecap="round" stroke-linejoin="round"/>
<path d="M131.199 143.605H105.849V34.8493V34.7178L118.459 12.0986L118.59 12.2301L131.199 34.8493V143.605ZM105.98 143.342H131.068V34.8493V34.7178L118.59 12.3616L106.112 34.7178V34.8493V143.342H105.98Z" fill="#FF1111" stroke="#FF1111" stroke-width="0.6" stroke-miterlimit="10" stroke-linecap="round" stroke-linejoin="round"/>
<path d="M118.525 12.2038L118.444 12.3071L139.182 28.6664L139.263 28.5631L118.525 12.2038Z" fill="#FF1111" stroke="#FF1111" stroke-width="0.6" stroke-miterlimit="10" stroke-linecap="round" stroke-linejoin="round"/>
<path d="M131.199 34.8491H105.98V34.9806H131.199V34.8491Z" fill="#FF1111" stroke="#FF1111" stroke-width="0.6" stroke-miterlimit="10" stroke-linecap="round" stroke-linejoin="round"/>
<path d="M128.835 38.1372H107.819V57.7317H128.835V38.1372Z" fill="#FF1111" stroke="#FF1111" stroke-width="0.6" stroke-miterlimit="10" stroke-linecap="round" stroke-linejoin="round"/>
<path d="M109.921 57.7314H109.79V143.474H109.921V57.7314Z" fill="#FF1111" stroke="#FF1111" stroke-width="0.6" stroke-miterlimit="10" stroke-linecap="round" stroke-linejoin="round"/>
<path d="M114.124 57.7314H113.993V143.474H114.124V57.7314Z" fill="#FF1111" stroke="#FF1111" stroke-width="0.6" stroke-miterlimit="10" stroke-linecap="round" stroke-linejoin="round"/>
<path d="M118.327 57.7314H118.196V143.474H118.327V57.7314Z" fill="#FF1111" stroke="#FF1111" stroke-width="0.6" stroke-miterlimit="10" stroke-linecap="round" stroke-linejoin="round"/>
<path d="M122.662 57.7314H122.53V143.474H122.662V57.7314Z" fill="#FF1111" stroke="#FF1111" stroke-width="0.6" stroke-miterlimit="10" stroke-linecap="round" stroke-linejoin="round"/>
<path d="M126.865 57.7314H126.734V143.474H126.865V57.7314Z" fill="#FF1111" stroke="#FF1111" stroke-width="0.6" stroke-miterlimit="10" stroke-linecap="round" stroke-linejoin="round"/>
<path d="M98.8882 17.0957L90.876 23.145V131.77L98.8882 125.589V17.0957Z" fill="#FF1111" stroke="#FF1111" stroke-width="0.6" stroke-miterlimit="10" stroke-linecap="round" stroke-linejoin="round"/>
<path d="M90.7443 131.77H65.394V23.0137V22.8822L78.1348 0.394531V0.526038L90.7443 23.1452V131.77ZM65.5254 131.638H90.613V23.1452V23.0137L78.1348 0.789052L65.6567 23.1452V23.2767V131.638H65.5254Z" fill="#FF1111" stroke="#FF1111" stroke-width="0.6" stroke-miterlimit="10" stroke-linecap="round" stroke-linejoin="round"/>
<path d="M78.1213 0.535373L78.04 0.638672L98.7781 16.998L98.8594 16.8947L78.1213 0.535373Z" fill="#FF1111" stroke="#FF1111" stroke-width="0.6" stroke-miterlimit="10" stroke-linecap="round" stroke-linejoin="round"/>
<path d="M90.8757 23.145H65.6567V23.2765H90.8757V23.145Z" fill="#FF1111" stroke="#FF1111" stroke-width="0.6" stroke-miterlimit="10" stroke-linecap="round" stroke-linejoin="round"/>
<path d="M88.38 26.4331H67.3643V46.0276H88.38V26.4331Z" fill="#FF1111" stroke="#FF1111" stroke-width="0.6" stroke-miterlimit="10" stroke-linecap="round" stroke-linejoin="round"/>
<path d="M69.5972 45.896H69.4658V131.638H69.5972V45.896Z" fill="#FF1111" stroke="#FF1111" stroke-width="0.6" stroke-miterlimit="10" stroke-linecap="round" stroke-linejoin="round"/>
<path d="M73.6689 45.896H73.5376V131.638H73.6689V45.896Z" fill="#FF1111" stroke="#FF1111" stroke-width="0.6" stroke-miterlimit="10" stroke-linecap="round" stroke-linejoin="round"/>
<path d="M77.8721 45.896H77.7407V131.638H77.8721V45.896Z" fill="#FF1111" stroke="#FF1111" stroke-width="0.6" stroke-miterlimit="10" stroke-linecap="round" stroke-linejoin="round"/>
<path d="M82.3379 45.896H82.2065V131.638H82.3379V45.896Z" fill="#FF1111" stroke="#FF1111" stroke-width="0.6" stroke-miterlimit="10" stroke-linecap="round" stroke-linejoin="round"/>
<path d="M86.541 45.896H86.4097V131.638H86.541V45.896Z" fill="#FF1111" stroke="#FF1111" stroke-width="0.6" stroke-miterlimit="10" stroke-linecap="round" stroke-linejoin="round"/>
</svg>
