<svg width="49" height="49" viewBox="0 0 49 49" fill="none" xmlns="http://www.w3.org/2000/svg">
<path d="M35.6254 18.6208C35.6355 18.8603 35.6415 19.1017 35.6415 19.3432C35.6415 26.6885 30.0511 35.1547 19.826 35.1547C16.6867 35.1547 13.7667 34.237 11.3055 32.6593C11.7402 32.7096 12.1849 32.7378 12.6317 32.7378C15.2357 32.7378 17.6345 31.8483 19.5362 30.3591C17.1032 30.3129 15.0486 28.707 14.3442 26.4973C14.6823 26.5617 15.0305 26.598 15.3867 26.598C15.8938 26.598 16.3848 26.5315 16.8537 26.4048C14.31 25.8936 12.3942 23.6478 12.3942 20.9532C12.3942 20.929 12.3942 20.9069 12.3962 20.8847C13.1448 21.2993 14.0021 21.5508 14.9117 21.579C13.4226 20.5829 12.4405 18.8804 12.4405 16.9525C12.4405 15.9342 12.7122 14.9783 13.1931 14.1573C15.932 17.522 20.0293 19.7336 24.6478 19.9651C24.5532 19.5586 24.5049 19.136 24.5049 18.6993C24.5049 15.6304 26.9942 13.141 30.0611 13.141C31.661 13.141 33.1039 13.8152 34.1201 14.8958C35.388 14.6463 36.5733 14.1854 37.6499 13.5475C37.2333 14.8455 36.3539 15.9342 35.2028 16.6225C36.3298 16.4876 37.4024 16.1898 38.3965 15.7471C37.6539 16.8599 36.7121 17.84 35.6254 18.6208ZM24.851 0C11.5369 0 0.702148 10.8328 0.702148 24.1489C0.702148 37.4629 11.5369 48.2977 24.851 48.2977C38.1671 48.2977 48.9999 37.4629 48.9999 24.1489C48.9999 10.8328 38.1691 0 24.851 0Z" fill="#F9F9F9"/>
<path d="M35.6254 18.6208C35.6355 18.8603 35.6415 19.1017 35.6415 19.3432C35.6415 26.6885 30.0511 35.1547 19.826 35.1547C16.6867 35.1547 13.7667 34.237 11.3055 32.6593C11.7402 32.7096 12.1849 32.7378 12.6317 32.7378C15.2357 32.7378 17.6345 31.8483 19.5362 30.3591C17.1032 30.3129 15.0486 28.707 14.3442 26.4973C14.6823 26.5617 15.0305 26.598 15.3867 26.598C15.8938 26.598 16.3848 26.5315 16.8537 26.4048C14.31 25.8936 12.3942 23.6478 12.3942 20.9532C12.3942 20.929 12.3942 20.9069 12.3962 20.8847C13.1448 21.2993 14.0021 21.5508 14.9117 21.579C13.4226 20.5829 12.4405 18.8804 12.4405 16.9525C12.4405 15.9342 12.7122 14.9783 13.1931 14.1573C15.932 17.522 20.0293 19.7336 24.6478 19.9651C24.5532 19.5586 24.5049 19.136 24.5049 18.6993C24.5049 15.6304 26.9942 13.141 30.0611 13.141C31.661 13.141 33.1039 13.8152 34.1201 14.8958C35.388 14.6463 36.5733 14.1854 37.6499 13.5475C37.2333 14.8455 36.3539 15.9342 35.2028 16.6225C36.3298 16.4876 37.4024 16.1898 38.3965 15.7471C37.6539 16.8599 36.7121 17.84 35.6254 18.6208ZM24.851 0C11.5369 0 0.702148 10.8328 0.702148 24.1489C0.702148 37.4629 11.5369 48.2977 24.851 48.2977C38.1671 48.2977 48.9999 37.4629 48.9999 24.1489C48.9999 10.8328 38.1691 0 24.851 0Z" fill="black"/>
</svg>
