<svg width="229" height="218" viewBox="0 0 229 218" fill="none" xmlns="http://www.w3.org/2000/svg">
<path d="M44 69.3786L239.417 46L254 218L44 69.3786Z" fill="#65BEC8"/>
<ellipse cx="9.5" cy="10" rx="9.5" ry="10" fill="#FFD400"/>
<ellipse cx="199" cy="93.5" rx="10" ry="9.5" fill="#FFD400"/>
<ellipse cx="141" cy="142.5" rx="10" ry="10.5" fill="#FFD400"/>
<path d="M138.692 111.229C139.086 110.7 143.426 103.162 146.581 93.11C148.422 87.0261 149.474 81.2067 149.474 75.7842C149.606 69.039 148.291 62.9551 145.661 57.6648C136.062 38.4874 123.439 24.6003 108.448 16.5325C96.7454 10.1842 86.2259 8.4648 77.4158 7.539M77.1528 122.604L77.2843 7.40674H77.4158C86.2259 8.20029 96.8769 10.0519 108.448 16.268C123.439 24.468 136.062 38.3551 145.661 57.5325C148.291 62.8229 149.606 68.9067 149.474 75.7842C149.343 81.2067 148.422 87.0261 146.581 93.2422C143.426 103.691 138.823 111.362 138.692 111.494L77.1528 122.604Z" stroke="#FF1111" stroke-width="0.6" stroke-miterlimit="10" stroke-linecap="round" stroke-linejoin="round"/>
<path d="M142.242 51.5808C137.245 41.2647 130.408 32.1389 121.729 24.4679C114.76 18.3841 106.607 13.226 97.6656 8.99375C82.2809 2.11633 69.526 0.529231 69.3945 0.529231V0.396973C69.526 0.396973 82.4124 1.85181 97.6656 8.86149C106.739 12.9615 114.76 18.1196 121.729 24.3357C130.539 32.0067 137.377 41.1325 142.373 51.5808H142.242Z" stroke="#FF1111" stroke-width="0.6" stroke-miterlimit="10" stroke-linecap="round" stroke-linejoin="round"/>
<path d="M87.9352 8.99365H87.8037V120.619H87.9352V8.99365Z" stroke="#FF1111" stroke-width="0.6" stroke-miterlimit="10" stroke-linecap="round" stroke-linejoin="round"/>
<path d="M98.4547 11.9033H98.3232V118.636H98.4547V11.9033Z" stroke="#FF1111" stroke-width="0.6" stroke-miterlimit="10" stroke-linecap="round" stroke-linejoin="round"/>
<path d="M108.974 16.5322H108.843V116.519H108.974V16.5322Z" stroke="#FF1111" stroke-width="0.6" stroke-miterlimit="10" stroke-linecap="round" stroke-linejoin="round"/>
<path d="M119.625 23.8066H119.494V114.932H119.625V23.8066Z" stroke="#FF1111" stroke-width="0.6" stroke-miterlimit="10" stroke-linecap="round" stroke-linejoin="round"/>
<path d="M130.539 34.5195H130.408V112.949H130.539V34.5195Z" stroke="#FF1111" stroke-width="0.6" stroke-miterlimit="10" stroke-linecap="round" stroke-linejoin="round"/>
<path d="M140.401 48.1421H140.27V108.32H140.401V48.1421Z" stroke="#FF1111" stroke-width="0.6" stroke-miterlimit="10" stroke-linecap="round" stroke-linejoin="round"/>
<path d="M148.291 64.1455V64.2778L77.5474 76.5778" stroke="#FF1111" stroke-width="0.6" stroke-miterlimit="10" stroke-linecap="round" stroke-linejoin="round"/>
<path d="M138.692 45.2324V45.3647L75.8379 55.284" stroke="#FF1111" stroke-width="0.6" stroke-miterlimit="10" stroke-linecap="round" stroke-linejoin="round"/>
<path d="M121.466 25.2617L121.598 25.394L73.208 31.7424" stroke="#FF1111" stroke-width="0.6" stroke-miterlimit="10" stroke-linecap="round" stroke-linejoin="round"/>
<path d="M148.291 86.3647V86.497L77.5474 97.7389" stroke="#FF1111" stroke-width="0.6" stroke-miterlimit="10" stroke-linecap="round" stroke-linejoin="round"/>
<path d="M77.1525 122.603L69.5259 115.594V0.529297L77.1525 7.40672V122.603Z" fill="#FF1111" stroke="#FF1111" stroke-width="0.6" stroke-miterlimit="10" stroke-linejoin="round"/>
</svg>
